v 14.69427 0.0 90.00003
v 14.65217 1.1117426 90.00003
v 14.52611 2.2171173 90.00003
v 14.316814 3.3097923 90.00003
v 14.025479 4.3835096 90.00003
v 13.653775 5.4321184 90.00003
v 13.203831 6.4496117 90.00003
v 12.678224 7.4301634 90.00003
v 12.079964 8.368155 90.00003
v 11.4124775 9.258214 90.00003
v 10.679588 10.095244 90.00003
v 9.885496 10.87445 90.00003
v 9.034747 11.591367 90.00003
v 8.132215 12.241889 90.00003
v 7.183069 12.822291 90.00003
v 6.192747 13.329248 90.00003
v 5.1669207 13.759858 90.00003
v 4.1114655 14.111651 90.00003
v 3.0324275 14.382614 90.00003
v 1.9359874 14.571196 90.00003
v 0.8284251 14.676313 90.00003
v -0.28391507 14.697369 90.00003
v -1.3946619 14.634235 90.00003
v -2.497453 14.487282 90.00003
v -3.5859718 14.257344 90.00003
v -4.653983 13.945744 90.00003
v -5.69537 13.554261 90.00003
v -6.7041664 13.085142 90.00003
v -7.674596 12.541074 90.00003
v -8.601098 11.925169 90.00003
v -9.478367 11.240959 90.00003
v -10.301377 10.492362 90.00003
v -11.065415 9.683666 90.00003
v -11.766104 8.819502 90.00003
v -12.399431 7.904821 90.00003
v -12.961767 6.944862 90.00003
v -13.449893 5.945123 90.00003
v -13.861012 4.9113317 90.00003
v -14.192768 3.849408 90.00003
v -14.443264 2.7654355 90.00003
v -14.611062 1.665623 90.00003
v -14.695201 0.5562697 90.00003
v -14.695201 -0.5562697 90.00003
v -14.611062 -1.665623 90.00003
v -14.443264 -2.7654355 90.00003
v -14.192768 -3.849408 90.00003
v -13.861012 -4.9113317 90.00003
v -13.449893 -5.945123 90.00003
v -12.961767 -6.944862 90.00003
v -12.399431 -7.904821 90.00003
v -11.766104 -8.819502 90.00003
v -11.065415 -9.683666 90.00003
v -10.301377 -10.492362 90.00003
v -9.478367 -11.240959 90.00003
v -8.601098 -11.925169 90.00003
v -7.674596 -12.541074 90.00003
v -6.7041664 -13.085142 90.00003
v -5.69537 -13.554261 90.00003
v -4.653983 -13.945744 90.00003
v -3.5859718 -14.257344 90.00003
v -2.497453 -14.487282 90.00003
v -1.3946619 -14.634235 90.00003
v -0.28391507 -14.697369 90.00003
v 0.8284251 -14.676313 90.00003
v 1.9359874 -14.571196 90.00003
v 3.0324275 -14.382614 90.00003
v 4.1114655 -14.111651 90.00003
v 5.1669207 -13.759858 90.00003
v 6.192747 -13.329248 90.00003
v 7.183069 -12.822291 90.00003
v 8.132215 -12.241889 90.00003
v 9.034747 -11.591367 90.00003
v 9.885496 -10.87445 90.00003
v 10.679588 -10.095244 90.00003
v 11.4124775 -9.258214 90.00003
v 12.079964 -8.368155 90.00003
v 12.678224 -7.4301634 90.00003
v 13.203831 -6.4496117 90.00003
v 13.653775 -5.4321184 90.00003
v 14.025479 -4.3835096 90.00003
v 14.316814 -3.3097923 90.00003
v 14.52611 -2.2171173 90.00003
v 14.65217 -1.1117426 90.00003
v 14.69427 0.0 0.0
v 14.65217 1.1117426 0.0
v 14.52611 2.2171173 0.0
v 14.316814 3.3097923 0.0
v 14.025479 4.3835096 0.0
v 13.653775 5.4321184 0.0
v 13.203831 6.4496117 0.0
v 12.678224 7.4301634 0.0
v 12.079964 8.368155 0.0
v 11.4124775 9.258214 0.0
v 10.679588 10.095244 0.0
v 9.885496 10.87445 0.0
v 9.034747 11.591367 0.0
v 8.132215 12.241889 0.0
v 7.183069 12.822291 0.0
v 6.192747 13.329248 0.0
v 5.1669207 13.759858 0.0
v 4.1114655 14.111651 0.0
v 3.0324275 14.382614 0.0
v 1.9359874 14.571196 0.0
v 0.8284251 14.676313 0.0
v -0.28391507 14.697369 0.0
v -1.3946619 14.634235 0.0
v -2.497453 14.487282 0.0
v -3.5859718 14.257344 0.0
v -4.653983 13.945744 0.0
v -5.69537 13.554261 0.0
v -6.7041664 13.085142 0.0
v -7.674596 12.541074 0.0
v -8.601098 11.925169 0.0
v -9.478367 11.240959 0.0
v -10.301377 10.492362 0.0
v -11.065415 9.683666 0.0
v -11.766104 8.819502 0.0
v -12.399431 7.904821 0.0
v -12.961767 6.944862 0.0
v -13.449893 5.945123 0.0
v -13.861012 4.9113317 0.0
v -14.192768 3.849408 0.0
v -14.443264 2.7654355 0.0
v -14.611062 1.665623 0.0
v -14.695201 0.5562697 0.0
v -14.695201 -0.5562697 0.0
v -14.611062 -1.665623 0.0
v -14.443264 -2.7654355 0.0
v -14.192768 -3.849408 0.0
v -13.861012 -4.9113317 0.0
v -13.449893 -5.945123 0.0
v -12.961767 -6.944862 0.0
v -12.399431 -7.904821 0.0
v -11.766104 -8.819502 0.0
v -11.065415 -9.683666 0.0
v -10.301377 -10.492362 0.0
v -9.478367 -11.240959 0.0
v -8.601098 -11.925169 0.0
v -7.674596 -12.541074 0.0
v -6.7041664 -13.085142 0.0
v -5.69537 -13.554261 0.0
v -4.653983 -13.945744 0.0
v -3.5859718 -14.257344 0.0
v -2.497453 -14.487282 0.0
v -1.3946619 -14.634235 0.0
v -0.28391507 -14.697369 0.0
v 0.8284251 -14.676313 0.0
v 1.9359874 -14.571196 0.0
v 3.0324275 -14.382614 0.0
v 4.1114655 -14.111651 0.0
v 5.1669207 -13.759858 0.0
v 6.192747 -13.329248 0.0
v 7.183069 -12.822291 0.0
v 8.132215 -12.241889 0.0
v 9.034747 -11.591367 0.0
v 9.885496 -10.87445 0.0
v 10.679588 -10.095244 0.0
v 11.4124775 -9.258214 0.0
v 12.079964 -8.368155 0.0
v 12.678224 -7.4301634 0.0
v 13.203831 -6.4496117 0.0
v 13.653775 -5.4321184 0.0
v 14.025479 -4.3835096 0.0
v 14.316814 -3.3097923 0.0
v 14.52611 -2.2171173 0.0
v 14.65217 -1.1117426 0.0
v 15.994269 0.0 90.00003
v 15.948448 1.21006 90.00003
v 15.811238 2.4131887 90.00003
v 15.583434 3.6024952 90.00003
v 15.2663355 4.771167 90.00003
v 14.861759 5.91251 90.00003
v 14.372024 7.019986 90.00003
v 13.799934 8.087254 90.00003
v 13.148766 9.108196 90.00003
v 12.422251 10.076969 90.00003
v 11.62455 10.988021 90.00003
v 10.760231 11.836136 90.00003
v 9.834246 12.616454 90.00003
v 8.851897 13.324506 90.00003
v 7.8188133 13.956237 90.00003
v 6.740912 14.508027 90.00003
v 5.6243663 14.976717 90.00003
v 4.4755716 15.35962 90.00003
v 3.3011084 15.654547 90.00003
v 2.1077042 15.859805 90.00003
v 0.90219396 15.97422 90.00003
v -0.30851647 15.997136 90.00003
v -1.5174927 15.928421 90.00003
v -2.7178094 15.76847 90.00003
v -3.902592 15.518199 90.00003
v -5.065054 15.179041 90.00003
v -6.1985354 14.752938 90.00003
v -7.2965455 14.242332 90.00003
v -8.352795 13.650148 90.00003
v -9.361233 12.979775 90.00003
v -10.316083 12.235059 90.00003
v -11.211877 11.4202585 90.00003
v -12.043484 10.540044 90.00003
v -12.806137 9.599459 90.00003
v -13.495473 8.603887 90.00003
v -14.10754 7.559033 90.00003
v -14.638834 6.470883 90.00003
v -15.08631 5.3456674 90.00003
v -15.447405 4.189832 90.00003
v -15.720055 3.009998 90.00003
v -15.902691 1.8129228 90.00003
v -15.994269 0.6054636 90.00003
v -15.994269 -0.6054636 90.00003
v -15.902691 -1.8129228 90.00003
v -15.720055 -3.009998 90.00003
v -15.447405 -4.189832 90.00003
v -15.08631 -5.3456674 90.00003
v -14.638834 -6.470883 90.00003
v -14.10754 -7.559033 90.00003
v -13.495473 -8.603887 90.00003
v -12.806137 -9.599459 90.00003
v -12.043484 -10.540044 90.00003
v -11.211877 -11.4202585 90.00003
v -10.316083 -12.235059 90.00003
v -9.361233 -12.979775 90.00003
v -8.352795 -13.650148 90.00003
v -7.2965455 -14.242332 90.00003
v -6.1985354 -14.752938 90.00003
v -5.065054 -15.179041 90.00003
v -3.902592 -15.518199 90.00003
v -2.7178094 -15.76847 90.00003
v -1.5174927 -15.928421 90.00003
v -0.30851647 -15.997136 90.00003
v 0.90219396 -15.97422 90.00003
v 2.1077042 -15.859805 90.00003
v 3.3011084 -15.654547 90.00003
v 4.4755716 -15.35962 90.00003
v 5.6243663 -14.976717 90.00003
v 6.740912 -14.508027 90.00003
v 7.8188133 -13.956237 90.00003
v 8.851897 -13.324506 90.00003
v 9.834246 -12.616454 90.00003
v 10.760231 -11.836136 90.00003
v 11.62455 -10.988021 90.00003
v 12.422251 -10.076969 90.00003
v 13.148766 -9.108196 90.00003
v 13.799934 -8.087254 90.00003
v 14.372024 -7.019986 90.00003
v 14.861759 -5.91251 90.00003
v 15.2663355 -4.771167 90.00003
v 15.583434 -3.6024952 90.00003
v 15.811238 -2.4131887 90.00003
v 15.948448 -1.21006 90.00003
v 15.994269 0.0 0.0
v 15.948448 1.21006 0.0
v 15.811238 2.4131887 0.0
v 15.583434 3.6024952 0.0
v 15.2663355 4.771167 0.0
v 14.861759 5.91251 0.0
v 14.372024 7.019986 0.0
v 13.799934 8.087254 0.0
v 13.148766 9.108196 0.0
v 12.422251 10.076969 0.0
v 11.62455 10.988021 0.0
v 10.760231 11.836136 0.0
v 9.834246 12.616454 0.0
v 8.851897 13.324506 0.0
v 7.8188133 13.956237 0.0
v 6.740912 14.508027 0.0
v 5.6243663 14.976717 0.0
v 4.4755716 15.35962 0.0
v 3.3011084 15.654547 0.0
v 2.1077042 15.859805 0.0
v 0.90219396 15.97422 0.0
v -0.30851647 15.997136 0.0
v -1.5174927 15.928421 0.0
v -2.7178094 15.76847 0.0
v -3.902592 15.518199 0.0
v -5.065054 15.179041 0.0
v -6.1985354 14.752938 0.0
v -7.2965455 14.242332 0.0
v -8.352795 13.650148 0.0
v -9.361233 12.979775 0.0
v -10.316083 12.235059 0.0
v -11.211877 11.4202585 0.0
v -12.043484 10.540044 0.0
v -12.806137 9.599459 0.0
v -13.495473 8.603887 0.0
v -14.10754 7.559033 0.0
v -14.638834 6.470883 0.0
v -15.08631 5.3456674 0.0
v -15.447405 4.189832 0.0
v -15.720055 3.009998 0.0
v -15.902691 1.8129228 0.0
v -15.994269 0.6054636 0.0
v -15.994269 -0.6054636 0.0
v -15.902691 -1.8129228 0.0
v -15.720055 -3.009998 0.0
v -15.447405 -4.189832 0.0
v -15.08631 -5.3456674 0.0
v -14.638834 -6.470883 0.0
v -14.10754 -7.559033 0.0
v -13.495473 -8.603887 0.0
v -12.806137 -9.599459 0.0
v -12.043484 -10.540044 0.0
v -11.211877 -11.4202585 0.0
v -10.316083 -12.235059 0.0
v -9.361233 -12.979775 0.0
v -8.352795 -13.650148 0.0
v -7.2965455 -14.242332 0.0
v -6.1985354 -14.752938 0.0
v -5.065054 -15.179041 0.0
v -3.902592 -15.518199 0.0
v -2.7178094 -15.76847 0.0
v -1.5174927 -15.928421 0.0
v -0.30851647 -15.997136 0.0
v 0.90219396 -15.97422 0.0
v 2.1077042 -15.859805 0.0
v 3.3011084 -15.654547 0.0
v 4.4755716 -15.35962 0.0
v 5.6243663 -14.976717 0.0
v 6.740912 -14.508027 0.0
v 7.8188133 -13.956237 0.0
v 8.851897 -13.324506 0.0
v 9.834246 -12.616454 0.0
v 10.760231 -11.836136 0.0
v 11.62455 -10.988021 0.0
v 12.422251 -10.076969 0.0
v 13.148766 -9.108196 0.0
v 13.799934 -8.087254 0.0
v 14.372024 -7.019986 0.0
v 14.861759 -5.91251 0.0
v 15.2663355 -4.771167 0.0
v 15.583434 -3.6024952 0.0
v 15.811238 -2.4131887 0.0
v 15.948448 -1.21006 0.0
v -0.005730428 0.0 4.999995
v -0.005730428 0.0 0.0
v 14.69427 0.0 4.999995
v 14.651136 1.1252741 4.999995
v 14.521992 2.2439444 4.999995
v 14.307592 3.3494468 4.999995
v 14.009196 4.4352927 4.999995
v 13.628555 5.4951115 4.999995
v 13.167904 6.5226817 4.999995
v 12.629943 7.511975 4.999995
v 12.017832 8.457184 4.999995
v 11.33516 9.352764 4.999995
v 10.585937 10.193458 4.999995
v 9.774557 10.974333 4.999995
v 8.905784 11.6908045 4.999995
v 7.9847126 12.338672 4.999995
v 7.016751 12.91413 4.999995
v 6.007579 13.413803 4.999995
v 4.9631176 13.834759 4.999995
v 3.8894978 14.174526 4.999995
v 2.793019 14.431112 4.999995
v 1.6801159 14.60301 4.999995
v 0.55731976 14.689214 4.999995
v -0.56878066 14.689214 4.999995
v -1.6915768 14.60301 4.999995
v -2.8044798 14.431112 4.999995
v -3.9009588 14.174526 4.999995
v -4.9745784 13.834759 4.999995
v -6.0190396 13.413803 4.999995
v -7.028212 12.91413 4.999995
v -7.9961734 12.338672 4.999995
v -8.917244 11.6908045 4.999995
v -9.786018 10.974333 4.999995
v -10.597398 10.193458 4.999995
v -11.3466215 9.352764 4.999995
v -12.029293 8.457184 4.999995
v -12.641404 7.511975 4.999995
v -13.179364 6.5226817 4.999995
v -13.640017 5.4951115 4.999995
v -14.020658 4.4352927 4.999995
v -14.319053 3.3494468 4.999995
v -14.533453 2.2439444 4.999995
v -14.662598 1.1252741 4.999995
v -14.70573 8.328342E-15 4.999995
v -14.662598 -1.1252741 4.999995
v -14.533453 -2.2439444 4.999995
v -14.319053 -3.3494468 4.999995
v -14.020658 -4.4352927 4.999995
v -13.640017 -5.4951115 4.999995
v -13.179364 -6.5226817 4.999995
v -12.641404 -7.511975 4.999995
v -12.029293 -8.457184 4.999995
v -11.3466215 -9.352764 4.999995
v -10.597398 -10.193458 4.999995
v -9.786018 -10.974333 4.999995
v -8.917244 -11.6908045 4.999995
v -7.9961734 -12.338672 4.999995
v -7.028212 -12.91413 4.999995
v -6.0190396 -13.413803 4.999995
v -4.9745784 -13.834759 4.999995
v -3.9009588 -14.174526 4.999995
v -2.8044798 -14.431112 4.999995
v -1.6915768 -14.60301 4.999995
v -0.56878066 -14.689214 4.999995
v 0.55731976 -14.689214 4.999995
v 1.6801159 -14.60301 4.999995
v 2.793019 -14.431112 4.999995
v 3.8894978 -14.174526 4.999995
v 4.9631176 -13.834759 4.999995
v 6.007579 -13.413803 4.999995
v 7.016751 -12.91413 4.999995
v 7.9847126 -12.338672 4.999995
v 8.905784 -11.6908045 4.999995
v 9.774557 -10.974333 4.999995
v 10.585937 -10.193458 4.999995
v 11.33516 -9.352764 4.999995
v 12.017832 -8.457184 4.999995
v 12.629943 -7.511975 4.999995
v 13.167904 -6.5226817 4.999995
v 13.628555 -5.4951115 4.999995
v 14.009196 -4.4352927 4.999995
v 14.307592 -3.3494468 4.999995
v 14.521992 -2.2439444 4.999995
v 14.651136 -1.1252741 4.999995
v 14.69427 0.0 0.0
v 14.651136 1.1252741 0.0
v 14.521992 2.2439444 0.0
v 14.307592 3.3494468 0.0
v 14.009196 4.4352927 0.0
v 13.628555 5.4951115 0.0
v 13.167904 6.5226817 0.0
v 12.629943 7.511975 0.0
v 12.017832 8.457184 0.0
v 11.33516 9.352764 0.0
v 10.585937 10.193458 0.0
v 9.774557 10.974333 0.0
v 8.905784 11.6908045 0.0
v 7.9847126 12.338672 0.0
v 7.016751 12.91413 0.0
v 6.007579 13.413803 0.0
v 4.9631176 13.834759 0.0
v 3.8894978 14.174526 0.0
v 2.793019 14.431112 0.0
v 1.6801159 14.60301 0.0
v 0.55731976 14.689214 0.0
v -0.56878066 14.689214 0.0
v -1.6915768 14.60301 0.0
v -2.8044798 14.431112 0.0
v -3.9009588 14.174526 0.0
v -4.9745784 13.834759 0.0
v -6.0190396 13.413803 0.0
v -7.028212 12.91413 0.0
v -7.9961734 12.338672 0.0
v -8.917244 11.6908045 0.0
v -9.786018 10.974333 0.0
v -10.597398 10.193458 0.0
v -11.3466215 9.352764 0.0
v -12.029293 8.457184 0.0
v -12.641404 7.511975 0.0
v -13.179364 6.5226817 0.0
v -13.640017 5.4951115 0.0
v -14.020658 4.4352927 0.0
v -14.319053 3.3494468 0.0
v -14.533453 2.2439444 0.0
v -14.662598 1.1252741 0.0
v -14.70573 8.328342E-15 0.0
v -14.662598 -1.1252741 0.0
v -14.533453 -2.2439444 0.0
v -14.319053 -3.3494468 0.0
v -14.020658 -4.4352927 0.0
v -13.640017 -5.4951115 0.0
v -13.179364 -6.5226817 0.0
v -12.641404 -7.511975 0.0
v -12.029293 -8.457184 0.0
v -11.3466215 -9.352764 0.0
v -10.597398 -10.193458 0.0
v -9.786018 -10.974333 0.0
v -8.917244 -11.6908045 0.0
v -7.9961734 -12.338672 0.0
v -7.028212 -12.91413 0.0
v -6.0190396 -13.413803 0.0
v -4.9745784 -13.834759 0.0
v -3.9009588 -14.174526 0.0
v -2.8044798 -14.431112 0.0
v -1.6915768 -14.60301 0.0
v -0.56878066 -14.689214 0.0
v 0.55731976 -14.689214 0.0
v 1.6801159 -14.60301 0.0
v 2.793019 -14.431112 0.0
v 3.8894978 -14.174526 0.0
v 4.9631176 -13.834759 0.0
v 6.007579 -13.413803 0.0
v 7.016751 -12.91413 0.0
v 7.9847126 -12.338672 0.0
v 8.905784 -11.6908045 0.0
v 9.774557 -10.974333 0.0
v 10.585937 -10.193458 0.0
v 11.33516 -9.352764 0.0
v 12.017832 -8.457184 0.0
v 12.629943 -7.511975 0.0
v 13.167904 -6.5226817 0.0
v 13.628555 -5.4951115 0.0
v 14.009196 -4.4352927 0.0
v 14.307592 -3.3494468 0.0
v 14.521992 -2.2439444 0.0
v 14.651136 -1.1252741 0.0
vt 0.0 0.0
vt 0.012048192 0.0
vt 0.024096385 0.0
vt 0.036144577 0.0
vt 0.04819277 0.0
vt 0.060240965 0.0
vt 0.072289154 0.0
vt 0.084337346 0.0
vt 0.09638554 0.0
vt 0.10843374 0.0
vt 0.12048193 0.0
vt 0.13253012 0.0
vt 0.14457831 0.0
vt 0.15662651 0.0
vt 0.16867469 0.0
vt 0.18072289 0.0
vt 0.19277108 0.0
vt 0.20481928 0.0
vt 0.21686748 0.0
vt 0.22891566 0.0
vt 0.24096386 0.0
vt 0.25301206 0.0
vt 0.26506025 0.0
vt 0.27710843 0.0
vt 0.28915662 0.0
vt 0.30120483 0.0
vt 0.31325302 0.0
vt 0.3253012 0.0
vt 0.33734939 0.0
vt 0.3493976 0.0
vt 0.36144578 0.0
vt 0.37349397 0.0
vt 0.38554215 0.0
vt 0.39759037 0.0
vt 0.40963855 0.0
vt 0.42168674 0.0
vt 0.43373495 0.0
vt 0.44578314 0.0
vt 0.45783132 0.0
vt 0.4698795 0.0
vt 0.48192772 0.0
vt 0.4939759 0.0
vt 0.5060241 0.0
vt 0.5180723 0.0
vt 0.5301205 0.0
vt 0.5421687 0.0
vt 0.55421686 0.0
vt 0.56626505 0.0
vt 0.57831323 0.0
vt 0.5903614 0.0
vt 0.60240966 0.0
vt 0.61445785 0.0
vt 0.62650603 0.0
vt 0.6385542 0.0
vt 0.6506024 0.0
vt 0.6626506 0.0
vt 0.67469877 0.0
vt 0.686747 0.0
vt 0.6987952 0.0
vt 0.7108434 0.0
vt 0.72289157 0.0
vt 0.73493975 0.0
vt 0.74698794 0.0
vt 0.7590361 0.0
vt 0.7710843 0.0
vt 0.78313255 0.0
vt 0.79518074 0.0
vt 0.8072289 0.0
vt 0.8192771 0.0
vt 0.8313253 0.0
vt 0.8433735 0.0
vt 0.85542166 0.0
vt 0.8674699 0.0
vt 0.8795181 0.0
vt 0.8915663 0.0
vt 0.90361446 0.0
vt 0.91566265 0.0
vt 0.92771083 0.0
vt 0.939759 0.0
vt 0.9518072 0.0
vt 0.96385545 0.0
vt 0.97590363 0.0
vt 0.9879518 0.0
vt 1.0 0.0
vt 0.0 1.0
vt 0.012048192 1.0
vt 0.024096385 1.0
vt 0.036144577 1.0
vt 0.04819277 1.0
vt 0.060240965 1.0
vt 0.072289154 1.0
vt 0.084337346 1.0
vt 0.09638554 1.0
vt 0.10843374 1.0
vt 0.12048193 1.0
vt 0.13253012 1.0
vt 0.14457831 1.0
vt 0.15662651 1.0
vt 0.16867469 1.0
vt 0.18072289 1.0
vt 0.19277108 1.0
vt 0.20481928 1.0
vt 0.21686748 1.0
vt 0.22891566 1.0
vt 0.24096386 1.0
vt 0.25301206 1.0
vt 0.26506025 1.0
vt 0.27710843 1.0
vt 0.28915662 1.0
vt 0.30120483 1.0
vt 0.31325302 1.0
vt 0.3253012 1.0
vt 0.33734939 1.0
vt 0.3493976 1.0
vt 0.36144578 1.0
vt 0.37349397 1.0
vt 0.38554215 1.0
vt 0.39759037 1.0
vt 0.40963855 1.0
vt 0.42168674 1.0
vt 0.43373495 1.0
vt 0.44578314 1.0
vt 0.45783132 1.0
vt 0.4698795 1.0
vt 0.48192772 1.0
vt 0.4939759 1.0
vt 0.5060241 1.0
vt 0.5180723 1.0
vt 0.5301205 1.0
vt 0.5421687 1.0
vt 0.55421686 1.0
vt 0.56626505 1.0
vt 0.57831323 1.0
vt 0.5903614 1.0
vt 0.60240966 1.0
vt 0.61445785 1.0
vt 0.62650603 1.0
vt 0.6385542 1.0
vt 0.6506024 1.0
vt 0.6626506 1.0
vt 0.67469877 1.0
vt 0.686747 1.0
vt 0.6987952 1.0
vt 0.7108434 1.0
vt 0.72289157 1.0
vt 0.73493975 1.0
vt 0.74698794 1.0
vt 0.7590361 1.0
vt 0.7710843 1.0
vt 0.78313255 1.0
vt 0.79518074 1.0
vt 0.8072289 1.0
vt 0.8192771 1.0
vt 0.8313253 1.0
vt 0.8433735 1.0
vt 0.85542166 1.0
vt 0.8674699 1.0
vt 0.8795181 1.0
vt 0.8915663 1.0
vt 0.90361446 1.0
vt 0.91566265 1.0
vt 0.92771083 1.0
vt 0.939759 1.0
vt 0.9518072 1.0
vt 0.96385545 1.0
vt 0.97590363 1.0
vt 0.9879518 1.0
vt 1.0 1.0
vt 0.0 1.0
vt 0.012048192 1.0
vt 0.024096385 1.0
vt 0.036144577 1.0
vt 0.04819277 1.0
vt 0.060240965 1.0
vt 0.072289154 1.0
vt 0.084337346 1.0
vt 0.09638554 1.0
vt 0.10843374 1.0
vt 0.12048193 1.0
vt 0.13253012 1.0
vt 0.14457831 1.0
vt 0.15662651 1.0
vt 0.16867469 1.0
vt 0.18072289 1.0
vt 0.19277108 1.0
vt 0.20481928 1.0
vt 0.21686748 1.0
vt 0.22891566 1.0
vt 0.24096386 1.0
vt 0.25301206 1.0
vt 0.26506025 1.0
vt 0.27710843 1.0
vt 0.28915662 1.0
vt 0.30120483 1.0
vt 0.31325302 1.0
vt 0.3253012 1.0
vt 0.33734939 1.0
vt 0.3493976 1.0
vt 0.36144578 1.0
vt 0.37349397 1.0
vt 0.38554215 1.0
vt 0.39759037 1.0
vt 0.40963855 1.0
vt 0.42168674 1.0
vt 0.43373495 1.0
vt 0.44578314 1.0
vt 0.45783132 1.0
vt 0.4698795 1.0
vt 0.48192772 1.0
vt 0.4939759 1.0
vt 0.5060241 1.0
vt 0.5180723 1.0
vt 0.5301205 1.0
vt 0.5421687 1.0
vt 0.55421686 1.0
vt 0.56626505 1.0
vt 0.57831323 1.0
vt 0.5903614 1.0
vt 0.60240966 1.0
vt 0.61445785 1.0
vt 0.62650603 1.0
vt 0.6385542 1.0
vt 0.6506024 1.0
vt 0.6626506 1.0
vt 0.67469877 1.0
vt 0.686747 1.0
vt 0.6987952 1.0
vt 0.7108434 1.0
vt 0.72289157 1.0
vt 0.73493975 1.0
vt 0.74698794 1.0
vt 0.7590361 1.0
vt 0.7710843 1.0
vt 0.78313255 1.0
vt 0.79518074 1.0
vt 0.8072289 1.0
vt 0.8192771 1.0
vt 0.8313253 1.0
vt 0.8433735 1.0
vt 0.85542166 1.0
vt 0.8674699 1.0
vt 0.8795181 1.0
vt 0.8915663 1.0
vt 0.90361446 1.0
vt 0.91566265 1.0
vt 0.92771083 1.0
vt 0.939759 1.0
vt 0.9518072 1.0
vt 0.96385545 1.0
vt 0.97590363 1.0
vt 0.9879518 1.0
vt 1.0 1.0
vt 0.0 0.0
vt 0.012048192 0.0
vt 0.024096385 0.0
vt 0.036144577 0.0
vt 0.04819277 0.0
vt 0.060240965 0.0
vt 0.072289154 0.0
vt 0.084337346 0.0
vt 0.09638554 0.0
vt 0.10843374 0.0
vt 0.12048193 0.0
vt 0.13253012 0.0
vt 0.14457831 0.0
vt 0.15662651 0.0
vt 0.16867469 0.0
vt 0.18072289 0.0
vt 0.19277108 0.0
vt 0.20481928 0.0
vt 0.21686748 0.0
vt 0.22891566 0.0
vt 0.24096386 0.0
vt 0.25301206 0.0
vt 0.26506025 0.0
vt 0.27710843 0.0
vt 0.28915662 0.0
vt 0.30120483 0.0
vt 0.31325302 0.0
vt 0.3253012 0.0
vt 0.33734939 0.0
vt 0.3493976 0.0
vt 0.36144578 0.0
vt 0.37349397 0.0
vt 0.38554215 0.0
vt 0.39759037 0.0
vt 0.40963855 0.0
vt 0.42168674 0.0
vt 0.43373495 0.0
vt 0.44578314 0.0
vt 0.45783132 0.0
vt 0.4698795 0.0
vt 0.48192772 0.0
vt 0.4939759 0.0
vt 0.5060241 0.0
vt 0.5180723 0.0
vt 0.5301205 0.0
vt 0.5421687 0.0
vt 0.55421686 0.0
vt 0.56626505 0.0
vt 0.57831323 0.0
vt 0.5903614 0.0
vt 0.60240966 0.0
vt 0.61445785 0.0
vt 0.62650603 0.0
vt 0.6385542 0.0
vt 0.6506024 0.0
vt 0.6626506 0.0
vt 0.67469877 0.0
vt 0.686747 0.0
vt 0.6987952 0.0
vt 0.7108434 0.0
vt 0.72289157 0.0
vt 0.73493975 0.0
vt 0.74698794 0.0
vt 0.7590361 0.0
vt 0.7710843 0.0
vt 0.78313255 0.0
vt 0.79518074 0.0
vt 0.8072289 0.0
vt 0.8192771 0.0
vt 0.8313253 0.0
vt 0.8433735 0.0
vt 0.85542166 0.0
vt 0.8674699 0.0
vt 0.8795181 0.0
vt 0.8915663 0.0
vt 0.90361446 0.0
vt 0.91566265 0.0
vt 0.92771083 0.0
vt 0.939759 0.0
vt 0.9518072 0.0
vt 0.96385545 0.0
vt 0.97590363 0.0
vt 0.9879518 0.0
vt 1.0 0.0
vt 0.0 0.0
vt 0.0 0.0
vt 0.0 0.0
vt 0.0 0.0
vt 0.0 0.0
vt 0.0 0.0
vt 0.0 0.0
vt 0.0 0.0
vt 0.0 0.0
vt 0.0 0.0
vt 0.0 0.0
vt 0.0 0.0
vt 0.0 0.0
vt 0.0 0.0
vt 0.0 0.0
vt 0.0 0.0
vt 0.0 0.0
vt 0.0 0.0
vt 0.0 0.0
vt 0.0 0.0
vt 0.0 0.0
vt 0.0 0.0
vt 0.0 0.0
vt 0.0 0.0
vt 0.0 0.0
vt 0.0 0.0
vt 0.0 0.0
vt 0.0 0.0
vt 0.0 0.0
vt 0.0 0.0
vt 0.0 0.0
vt 0.0 0.0
vt 0.0 0.0
vt 0.0 0.0
vt 0.0 0.0
vt 0.0 0.0
vt 0.0 0.0
vt 0.0 0.0
vt 0.0 0.0
vt 0.0 0.0
vt 0.0 0.0
vt 0.0 0.0
vt 0.0 0.0
vt 0.0 0.0
vt 0.0 0.0
vt 0.0 0.0
vt 0.0 0.0
vt 0.0 0.0
vt 0.0 0.0
vt 0.0 0.0
vt 0.0 0.0
vt 0.0 0.0
vt 0.0 0.0
vt 0.0 0.0
vt 0.0 0.0
vt 0.0 0.0
vt 0.0 0.0
vt 0.0 0.0
vt 0.0 0.0
vt 0.0 0.0
vt 0.0 0.0
vt 0.0 0.0
vt 0.0 0.0
vt 0.0 0.0
vt 0.0 0.0
vt 0.0 0.0
vt 0.0 0.0
vt 0.0 0.0
vt 0.0 0.0
vt 0.0 0.0
vt 0.0 0.0
vt 0.0 0.0
vt 0.0 0.0
vt 0.0 0.0
vt 0.0 0.0
vt 0.0 0.0
vt 0.0 0.0
vt 0.0 0.0
vt 0.0 0.0
vt 0.0 0.0
vt 0.0 0.0
vt 0.0 0.0
vt 0.0 0.0
vt 0.0 0.0
vt 0.0 0.0
vt 0.0 0.0
vt 0.0 0.0
vt 0.0 0.0
vt 0.0 0.0
vt 0.0 0.0
vt 0.0 0.0
vt 0.0 0.0
vt 0.0 0.0
vt 0.0 0.0
vt 0.0 0.0
vt 0.0 0.0
vt 0.0 0.0
vt 0.0 0.0
vt 0.0 0.0
vt 0.0 0.0
vt 0.0 0.0
vt 0.0 0.0
vt 0.0 0.0
vt 0.0 0.0
vt 0.0 0.0
vt 0.0 0.0
vt 0.0 0.0
vt 0.0 0.0
vt 0.0 0.0
vt 0.0 0.0
vt 0.0 0.0
vt 0.0 0.0
vt 0.0 0.0
vt 0.0 0.0
vt 0.0 0.0
vt 0.0 0.0
vt 0.0 0.0
vt 0.0 0.0
vt 0.0 0.0
vt 0.0 0.0
vt 0.0 0.0
vt 0.0 0.0
vt 0.0 0.0
vt 0.0 0.0
vt 0.0 0.0
vt 0.0 0.0
vt 0.0 0.0
vt 0.0 0.0
vt 0.0 0.0
vt 0.0 0.0
vt 0.0 0.0
vt 0.0 0.0
vt 0.0 0.0
vt 0.0 0.0
vt 0.0 0.0
vt 0.0 0.0
vt 0.0 0.0
vt 0.0 0.0
vt 0.0 0.0
vt 0.0 0.0
vt 0.0 0.0
vt 0.0 0.0
vt 0.0 0.0
vt 0.0 0.0
vt 0.0 0.0
vt 0.0 0.0
vt 0.0 0.0
vt 0.0 0.0
vt 0.0 0.0
vt 0.0 0.0
vt 0.0 0.0
vt 0.0 0.0
vt 0.0 0.0
vt 0.0 0.0
vt 0.0 0.0
vt 0.0 0.0
vt 0.0 0.0
vt 0.0 0.0
vt 0.0 0.0
vt 0.0 0.0
vt 0.0 0.0
vt 0.0 0.0
vt 0.0 0.0
vt 0.0 0.0
vt 0.0 0.0
vt 0.0 0.0
vt 0.0 0.0
vt 0.0 0.0
vt 0.0 0.0
vt 0.0 0.0
vt 0.0 0.0
vt 0.0 0.0
vt 0.0 0.0
vt 0.0 0.0
vt 0.0 0.0
vt 0.0 0.0
vt 0.0 0.0
vt 0.0 0.0
vt 0.0 0.0
vt 0.0 0.0
vt 0.0 0.0
vt 0.0 0.0
vt 0.0 0.0
vt 0.0 0.0
vt 0.0 0.0
vt 0.0 0.0
vt 0.0 0.0
vt 0.0 0.0
vt 0.0 0.0
vt 0.0 0.0
vt 0.0 0.0
vt 0.0 0.0
vt 0.0 0.0
vt 0.0 0.0
vt 0.0 0.0
vt 0.0 0.0
vt 0.0 0.0
vt 0.0 0.0
vt 0.0 0.0
vt 0.0 0.0
vt 0.0 0.0
vt 0.0 0.0
vt 0.0 0.0
vt 0.0 0.0
vt 0.0 0.0
vt 0.0 0.0
vt 0.0 0.0
vt 0.0 0.0
vt 0.0 0.0
vt 0.0 0.0
vt 0.0 0.0
vt 0.0 0.0
vt 0.0 0.0
vt 0.0 0.0
vt 0.0 0.0
vt 0.0 0.0
vt 0.0 0.0
vt 0.0 0.0
vt 0.0 0.0
vt 0.0 0.0
vt 0.0 0.0
vt 0.0 0.0
vt 0.0 0.0
vt 0.0 0.0
vt 0.0 0.0
vt 0.0 0.0
vt 0.0 0.0
vt 0.0 0.0
vt 0.0 0.0
vt 0.0 0.0
vt 0.0 0.0
vt 0.0 0.0
vt 0.0 0.0
vt 0.0 0.0
vt 0.0 0.0
vt 0.0 0.0
vt 0.0 0.0
vt 0.0 0.0
vt 0.0 0.0
vt 0.0 0.0
vt 0.0 0.0
vt 0.0 0.0
vt 0.0 0.0
vt 0.0 0.0
vt 0.0 0.0
vt 0.0 0.0
vt 0.0 0.0
vt 0.0 0.0
vt 0.0 0.0
vt 0.0 0.0
vt 0.0 0.0
vt 0.0 0.0
vt 0.0 0.0
vt 0.0 0.0
vt 0.0 0.0
vt 0.0 0.0
vt 0.0 0.0
vt 0.0 0.0
vt 0.0 0.0
vt 0.0 0.0
vt 0.0 0.0
vt 0.0 0.0
vt 0.0 0.0
vt 0.0 0.0
vt 0.0 0.0
vt 0.0 0.0
vt 0.0 0.0
vt 0.0 0.0
vt 0.0 0.0
vt 0.0 0.0
vt 0.0 0.0
vt 0.0 0.0
vt 0.0 0.0
vt 0.0 0.0
vt 0.0 0.0
vt 0.0 0.0
vt 0.0 0.0
vt 0.0 0.0
vt 0.0 0.0
vt 0.0 0.0
vt 0.0 0.0
vt 0.0 0.0
vt 0.0 0.0
vt 0.0 0.0
vt 0.0 0.0
vt 0.0 0.0
vt 0.0 0.0
vt 0.0 0.0
vt 0.0 0.0
vt 0.0 0.0
vt 0.0 0.0
vt 0.0 0.0
vt 0.0 0.0
vt 0.0 0.0
vt 0.0 0.0
vt 0.0 0.0
vt 0.0 0.0
vt 0.0 0.0
vt 0.0 0.0
vt 0.0 0.0
vt 0.0 0.0
vt 0.0 0.0
vt 0.0 0.0
vt 0.0 0.0
vt 0.0 0.0
vt 0.0 0.0
vt 0.0 0.0
vt 0.0 0.0
vt 0.0 0.0
vt 0.0 0.0
vt 0.0 0.0
vt 0.0 0.0
vt 0.0 0.0
vt 0.0 0.0
vt 0.0 0.0
vt 0.0 0.0
vt 0.0 0.0
vt 0.0 0.0
vt 0.0 0.0
vt 0.0 0.0
vt 0.0 0.0
vt 0.0 0.0
vt 0.0 0.0
vt 0.0 0.0
vt 0.0 0.0
vt 0.0 0.0
vt 0.0 0.0
vt 0.0 0.0
vt 0.0 0.0
vt 0.0 0.0
vt 0.0 0.0
vt 0.0 0.0
vt 0.0 0.0
vt 0.0 0.0
vt 0.0 0.0
vt 0.0 0.0
vt 0.0 1.0
vt 0.0121951215 1.0
vt 0.024390243 1.0
vt 0.036585364 1.0
vt 0.048780486 1.0
vt 0.06097561 1.0
vt 0.07317073 1.0
vt 0.085365854 1.0
vt 0.09756097 1.0
vt 0.1097561 1.0
vt 0.12195122 1.0
vt 0.13414635 1.0
vt 0.14634146 1.0
vt 0.15853658 1.0
vt 0.17073171 1.0
vt 0.18292683 1.0
vt 0.19512194 1.0
vt 0.20731707 1.0
vt 0.2195122 1.0
vt 0.23170732 1.0
vt 0.24390244 1.0
vt 0.25609756 1.0
vt 0.2682927 1.0
vt 0.2804878 1.0
vt 0.29268292 1.0
vt 0.30487806 1.0
vt 0.31707317 1.0
vt 0.3292683 1.0
vt 0.34146342 1.0
vt 0.35365853 1.0
vt 0.36585367 1.0
vt 0.37804878 1.0
vt 0.3902439 1.0
vt 0.40243903 1.0
vt 0.41463414 1.0
vt 0.42682928 1.0
vt 0.4390244 1.0
vt 0.4512195 1.0
vt 0.46341464 1.0
vt 0.47560975 1.0
vt 0.4878049 1.0
vt 0.5 1.0
vt 0.5121951 1.0
vt 0.5243902 1.0
vt 0.5365854 1.0
vt 0.5487805 1.0
vt 0.5609756 1.0
vt 0.5731707 1.0
vt 0.58536583 1.0
vt 0.597561 1.0
vt 0.6097561 1.0
vt 0.6219512 1.0
vt 0.63414633 1.0
vt 0.64634144 1.0
vt 0.6585366 1.0
vt 0.6707317 1.0
vt 0.68292683 1.0
vt 0.69512194 1.0
vt 0.70731705 1.0
vt 0.7195122 1.0
vt 0.73170733 1.0
vt 0.74390244 1.0
vt 0.75609756 1.0
vt 0.76829267 1.0
vt 0.7804878 1.0
vt 0.79268295 1.0
vt 0.80487806 1.0
vt 0.81707317 1.0
vt 0.8292683 1.0
vt 0.8414634 1.0
vt 0.85365856 1.0
vt 0.86585367 1.0
vt 0.8780488 1.0
vt 0.8902439 1.0
vt 0.902439 1.0
vt 0.91463417 1.0
vt 0.9268293 1.0
vt 0.9390244 1.0
vt 0.9512195 1.0
vt 0.9634146 1.0
vt 0.9756098 1.0
vt 0.9878049 1.0
vt 1.0 1.0
vt 0.0 0.0
vt 0.0121951215 0.0
vt 0.024390243 0.0
vt 0.036585364 0.0
vt 0.048780486 0.0
vt 0.06097561 0.0
vt 0.07317073 0.0
vt 0.085365854 0.0
vt 0.09756097 0.0
vt 0.1097561 0.0
vt 0.12195122 0.0
vt 0.13414635 0.0
vt 0.14634146 0.0
vt 0.15853658 0.0
vt 0.17073171 0.0
vt 0.18292683 0.0
vt 0.19512194 0.0
vt 0.20731707 0.0
vt 0.2195122 0.0
vt 0.23170732 0.0
vt 0.24390244 0.0
vt 0.25609756 0.0
vt 0.2682927 0.0
vt 0.2804878 0.0
vt 0.29268292 0.0
vt 0.30487806 0.0
vt 0.31707317 0.0
vt 0.3292683 0.0
vt 0.34146342 0.0
vt 0.35365853 0.0
vt 0.36585367 0.0
vt 0.37804878 0.0
vt 0.3902439 0.0
vt 0.40243903 0.0
vt 0.41463414 0.0
vt 0.42682928 0.0
vt 0.4390244 0.0
vt 0.4512195 0.0
vt 0.46341464 0.0
vt 0.47560975 0.0
vt 0.4878049 0.0
vt 0.5 0.0
vt 0.5121951 0.0
vt 0.5243902 0.0
vt 0.5365854 0.0
vt 0.5487805 0.0
vt 0.5609756 0.0
vt 0.5731707 0.0
vt 0.58536583 0.0
vt 0.597561 0.0
vt 0.6097561 0.0
vt 0.6219512 0.0
vt 0.63414633 0.0
vt 0.64634144 0.0
vt 0.6585366 0.0
vt 0.6707317 0.0
vt 0.68292683 0.0
vt 0.69512194 0.0
vt 0.70731705 0.0
vt 0.7195122 0.0
vt 0.73170733 0.0
vt 0.74390244 0.0
vt 0.75609756 0.0
vt 0.76829267 0.0
vt 0.7804878 0.0
vt 0.79268295 0.0
vt 0.80487806 0.0
vt 0.81707317 0.0
vt 0.8292683 0.0
vt 0.8414634 0.0
vt 0.85365856 0.0
vt 0.86585367 0.0
vt 0.8780488 0.0
vt 0.8902439 0.0
vt 0.902439 0.0
vt 0.91463417 0.0
vt 0.9268293 0.0
vt 0.9390244 0.0
vt 0.9512195 0.0
vt 0.9634146 0.0
vt 0.9756098 0.0
vt 0.9878049 0.0
vt 1.0 0.0
vn -1.0 0.0 0.0
vn -0.99713606 -0.07562874 0.0
vn -0.9885606 -0.15082431 0.0
vn -0.97432274 -0.22515593 0.0
vn -0.9545041 -0.29819793 0.0
vn -0.9292181 -0.36953187 0.0
vn -0.89860964 -0.43874913 0.0
vn -0.862854 -0.5054533 0.0
vn -0.822156 -0.5692622 0.0
vn -0.77674884 -0.6298106 0.0
vn -0.7268925 -0.6867513 0.0
vn -0.67287254 -0.73975843 0.0
vn -0.61499846 -0.7885283 0.0
vn -0.5536017 -0.83278155 0.0
vn -0.489034 -0.87226474 0.0
vn -0.42166513 -0.90675163 0.0
vn -0.35188103 -0.93604475 0.0
vn -0.2800814 -0.9599763 0.0
vn -0.20667742 -0.9784092 0.0
vn -0.13208966 -0.9912378 0.0
vn -0.056745272 -0.9983887 0.0
vn 0.018924126 -0.99982095 0.0
vn 0.094485134 -0.99552625 0.0
vn 0.16950494 -0.98552936 0.0
vn 0.24355383 -0.9698874 0.0
vn 0.31620768 -0.94869 0.0
vn 0.38705033 -0.92205864 0.0
vn 0.45567593 -0.8901457 0.0
vn 0.5216915 -0.8531342 0.0
vn 0.58471894 -0.811236 0.0
vn 0.644397 -0.7646911 0.0
vn 0.70038414 -0.7137661 0.0
vn 0.7523595 -0.65875274 0.0
vn 0.8000254 -0.5999661 0.0
vn 0.8431089 -0.5377429 0.0
vn 0.8813631 -0.47243956 0.0
vn 0.9145689 -0.40443015 0.0
vn 0.9425362 -0.33410418 0.0
vn 0.9651047 -0.2618645 0.0
vn 0.98214513 -0.18812487 0.0
vn 0.99355996 -0.11330768 0.0
vn 0.99928373 -0.037841477 0.0
vn 0.99928373 0.037841477 0.0
vn 0.99355996 0.11330768 0.0
vn 0.98214513 0.18812487 0.0
vn 0.9651047 0.2618645 0.0
vn 0.9425362 0.33410418 0.0
vn 0.9145689 0.40443015 0.0
vn 0.8813631 0.47243956 0.0
vn 0.8431089 0.5377429 0.0
vn 0.8000254 0.5999661 0.0
vn 0.7523595 0.65875274 0.0
vn 0.70038414 0.7137661 0.0
vn 0.644397 0.7646911 0.0
vn 0.58471894 0.811236 0.0
vn 0.5216915 0.8531342 0.0
vn 0.45567593 0.8901457 0.0
vn 0.38705033 0.92205864 0.0
vn 0.31620768 0.94869 0.0
vn 0.24355383 0.9698874 0.0
vn 0.16950494 0.98552936 0.0
vn 0.094485134 0.99552625 0.0
vn 0.018924126 0.99982095 0.0
vn -0.056745272 0.9983887 0.0
vn -0.13208966 0.9912378 0.0
vn -0.20667742 0.9784092 0.0
vn -0.2800814 0.9599763 0.0
vn -0.35188103 0.93604475 0.0
vn -0.42166513 0.90675163 0.0
vn -0.489034 0.87226474 0.0
vn -0.5536017 0.83278155 0.0
vn -0.61499846 0.7885283 0.0
vn -0.67287254 0.73975843 0.0
vn -0.7268925 0.6867513 0.0
vn -0.77674884 0.6298106 0.0
vn -0.822156 0.5692622 0.0
vn -0.862854 0.5054533 0.0
vn -0.89860964 0.43874913 0.0
vn -0.9292181 0.36953187 0.0
vn -0.9545041 0.29819793 0.0
vn -0.97432274 0.22515593 0.0
vn -0.9885606 0.15082431 0.0
vn -0.99713606 0.07562874 0.0
vn -1.0 0.0 0.0
vn -0.99713606 -0.07562874 0.0
vn -0.9885606 -0.15082431 0.0
vn -0.97432274 -0.22515593 0.0
vn -0.9545041 -0.29819793 0.0
vn -0.9292181 -0.36953187 0.0
vn -0.89860964 -0.43874913 0.0
vn -0.862854 -0.5054533 0.0
vn -0.822156 -0.5692622 0.0
vn -0.77674884 -0.6298106 0.0
vn -0.7268925 -0.6867513 0.0
vn -0.67287254 -0.73975843 0.0
vn -0.61499846 -0.7885283 0.0
vn -0.5536017 -0.83278155 0.0
vn -0.489034 -0.87226474 0.0
vn -0.42166513 -0.90675163 0.0
vn -0.35188103 -0.93604475 0.0
vn -0.2800814 -0.9599763 0.0
vn -0.20667742 -0.9784092 0.0
vn -0.13208966 -0.9912378 0.0
vn -0.056745272 -0.9983887 0.0
vn 0.018924126 -0.99982095 0.0
vn 0.094485134 -0.99552625 0.0
vn 0.16950494 -0.98552936 0.0
vn 0.24355383 -0.9698874 0.0
vn 0.31620768 -0.94869 0.0
vn 0.38705033 -0.92205864 0.0
vn 0.45567593 -0.8901457 0.0
vn 0.5216915 -0.8531342 0.0
vn 0.58471894 -0.811236 0.0
vn 0.644397 -0.7646911 0.0
vn 0.70038414 -0.7137661 0.0
vn 0.7523595 -0.65875274 0.0
vn 0.8000254 -0.5999661 0.0
vn 0.8431089 -0.5377429 0.0
vn 0.8813631 -0.47243956 0.0
vn 0.9145689 -0.40443015 0.0
vn 0.9425362 -0.33410418 0.0
vn 0.9651047 -0.2618645 0.0
vn 0.98214513 -0.18812487 0.0
vn 0.99355996 -0.11330768 0.0
vn 0.99928373 -0.037841477 0.0
vn 0.99928373 0.037841477 0.0
vn 0.99355996 0.11330768 0.0
vn 0.98214513 0.18812487 0.0
vn 0.9651047 0.2618645 0.0
vn 0.9425362 0.33410418 0.0
vn 0.9145689 0.40443015 0.0
vn 0.8813631 0.47243956 0.0
vn 0.8431089 0.5377429 0.0
vn 0.8000254 0.5999661 0.0
vn 0.7523595 0.65875274 0.0
vn 0.70038414 0.7137661 0.0
vn 0.644397 0.7646911 0.0
vn 0.58471894 0.811236 0.0
vn 0.5216915 0.8531342 0.0
vn 0.45567593 0.8901457 0.0
vn 0.38705033 0.92205864 0.0
vn 0.31620768 0.94869 0.0
vn 0.24355383 0.9698874 0.0
vn 0.16950494 0.98552936 0.0
vn 0.094485134 0.99552625 0.0
vn 0.018924126 0.99982095 0.0
vn -0.056745272 0.9983887 0.0
vn -0.13208966 0.9912378 0.0
vn -0.20667742 0.9784092 0.0
vn -0.2800814 0.9599763 0.0
vn -0.35188103 0.93604475 0.0
vn -0.42166513 0.90675163 0.0
vn -0.489034 0.87226474 0.0
vn -0.5536017 0.83278155 0.0
vn -0.61499846 0.7885283 0.0
vn -0.67287254 0.73975843 0.0
vn -0.7268925 0.6867513 0.0
vn -0.77674884 0.6298106 0.0
vn -0.822156 0.5692622 0.0
vn -0.862854 0.5054533 0.0
vn -0.89860964 0.43874913 0.0
vn -0.9292181 0.36953187 0.0
vn -0.9545041 0.29819793 0.0
vn -0.97432274 0.22515593 0.0
vn -0.9885606 0.15082431 0.0
vn -0.99713606 0.07562874 0.0
vn 1.0 0.0 0.0
vn 0.99713606 0.07562874 0.0
vn 0.9885606 0.15082431 0.0
vn 0.97432274 0.22515593 0.0
vn 0.9545041 0.29819793 0.0
vn 0.9292181 0.36953187 0.0
vn 0.89860964 0.43874913 0.0
vn 0.862854 0.5054533 0.0
vn 0.822156 0.5692622 0.0
vn 0.77674884 0.6298106 0.0
vn 0.7268925 0.6867513 0.0
vn 0.67287254 0.73975843 0.0
vn 0.61499846 0.7885283 0.0
vn 0.5536017 0.83278155 0.0
vn 0.489034 0.87226474 0.0
vn 0.42166513 0.90675163 0.0
vn 0.35188103 0.93604475 0.0
vn 0.2800814 0.9599763 0.0
vn 0.20667742 0.9784092 0.0
vn 0.13208966 0.9912378 0.0
vn 0.056745272 0.9983887 0.0
vn -0.018924126 0.99982095 0.0
vn -0.094485134 0.99552625 0.0
vn -0.16950494 0.98552936 0.0
vn -0.24355383 0.9698874 0.0
vn -0.31620768 0.94869 0.0
vn -0.38705033 0.92205864 0.0
vn -0.45567593 0.8901457 0.0
vn -0.5216915 0.8531342 0.0
vn -0.58471894 0.811236 0.0
vn -0.644397 0.7646911 0.0
vn -0.70038414 0.7137661 0.0
vn -0.7523595 0.65875274 0.0
vn -0.8000254 0.5999661 0.0
vn -0.8431089 0.5377429 0.0
vn -0.8813631 0.47243956 0.0
vn -0.9145689 0.40443015 0.0
vn -0.9425362 0.33410418 0.0
vn -0.9651047 0.2618645 0.0
vn -0.98214513 0.18812487 0.0
vn -0.99355996 0.11330768 0.0
vn -0.99928373 0.037841477 0.0
vn -0.99928373 -0.037841477 0.0
vn -0.99355996 -0.11330768 0.0
vn -0.98214513 -0.18812487 0.0
vn -0.9651047 -0.2618645 0.0
vn -0.9425362 -0.33410418 0.0
vn -0.9145689 -0.40443015 0.0
vn -0.8813631 -0.47243956 0.0
vn -0.8431089 -0.5377429 0.0
vn -0.8000254 -0.5999661 0.0
vn -0.7523595 -0.65875274 0.0
vn -0.70038414 -0.7137661 0.0
vn -0.644397 -0.7646911 0.0
vn -0.58471894 -0.811236 0.0
vn -0.5216915 -0.8531342 0.0
vn -0.45567593 -0.8901457 0.0
vn -0.38705033 -0.92205864 0.0
vn -0.31620768 -0.94869 0.0
vn -0.24355383 -0.9698874 0.0
vn -0.16950494 -0.98552936 0.0
vn -0.094485134 -0.99552625 0.0
vn -0.018924126 -0.99982095 0.0
vn 0.056745272 -0.9983887 0.0
vn 0.13208966 -0.9912378 0.0
vn 0.20667742 -0.9784092 0.0
vn 0.2800814 -0.9599763 0.0
vn 0.35188103 -0.93604475 0.0
vn 0.42166513 -0.90675163 0.0
vn 0.489034 -0.87226474 0.0
vn 0.5536017 -0.83278155 0.0
vn 0.61499846 -0.7885283 0.0
vn 0.67287254 -0.73975843 0.0
vn 0.7268925 -0.6867513 0.0
vn 0.77674884 -0.6298106 0.0
vn 0.822156 -0.5692622 0.0
vn 0.862854 -0.5054533 0.0
vn 0.89860964 -0.43874913 0.0
vn 0.9292181 -0.36953187 0.0
vn 0.9545041 -0.29819793 0.0
vn 0.97432274 -0.22515593 0.0
vn 0.9885606 -0.15082431 0.0
vn 0.99713606 -0.07562874 0.0
vn 1.0 0.0 0.0
vn 0.99713606 0.07562874 0.0
vn 0.9885606 0.15082431 0.0
vn 0.97432274 0.22515593 0.0
vn 0.9545041 0.29819793 0.0
vn 0.9292181 0.36953187 0.0
vn 0.89860964 0.43874913 0.0
vn 0.862854 0.5054533 0.0
vn 0.822156 0.5692622 0.0
vn 0.77674884 0.6298106 0.0
vn 0.7268925 0.6867513 0.0
vn 0.67287254 0.73975843 0.0
vn 0.61499846 0.7885283 0.0
vn 0.5536017 0.83278155 0.0
vn 0.489034 0.87226474 0.0
vn 0.42166513 0.90675163 0.0
vn 0.35188103 0.93604475 0.0
vn 0.2800814 0.9599763 0.0
vn 0.20667742 0.9784092 0.0
vn 0.13208966 0.9912378 0.0
vn 0.056745272 0.9983887 0.0
vn -0.018924126 0.99982095 0.0
vn -0.094485134 0.99552625 0.0
vn -0.16950494 0.98552936 0.0
vn -0.24355383 0.9698874 0.0
vn -0.31620768 0.94869 0.0
vn -0.38705033 0.92205864 0.0
vn -0.45567593 0.8901457 0.0
vn -0.5216915 0.8531342 0.0
vn -0.58471894 0.811236 0.0
vn -0.644397 0.7646911 0.0
vn -0.70038414 0.7137661 0.0
vn -0.7523595 0.65875274 0.0
vn -0.8000254 0.5999661 0.0
vn -0.8431089 0.5377429 0.0
vn -0.8813631 0.47243956 0.0
vn -0.9145689 0.40443015 0.0
vn -0.9425362 0.33410418 0.0
vn -0.9651047 0.2618645 0.0
vn -0.98214513 0.18812487 0.0
vn -0.99355996 0.11330768 0.0
vn -0.99928373 0.037841477 0.0
vn -0.99928373 -0.037841477 0.0
vn -0.99355996 -0.11330768 0.0
vn -0.98214513 -0.18812487 0.0
vn -0.9651047 -0.2618645 0.0
vn -0.9425362 -0.33410418 0.0
vn -0.9145689 -0.40443015 0.0
vn -0.8813631 -0.47243956 0.0
vn -0.8431089 -0.5377429 0.0
vn -0.8000254 -0.5999661 0.0
vn -0.7523595 -0.65875274 0.0
vn -0.70038414 -0.7137661 0.0
vn -0.644397 -0.7646911 0.0
vn -0.58471894 -0.811236 0.0
vn -0.5216915 -0.8531342 0.0
vn -0.45567593 -0.8901457 0.0
vn -0.38705033 -0.92205864 0.0
vn -0.31620768 -0.94869 0.0
vn -0.24355383 -0.9698874 0.0
vn -0.16950494 -0.98552936 0.0
vn -0.094485134 -0.99552625 0.0
vn -0.018924126 -0.99982095 0.0
vn 0.056745272 -0.9983887 0.0
vn 0.13208966 -0.9912378 0.0
vn 0.20667742 -0.9784092 0.0
vn 0.2800814 -0.9599763 0.0
vn 0.35188103 -0.93604475 0.0
vn 0.42166513 -0.90675163 0.0
vn 0.489034 -0.87226474 0.0
vn 0.5536017 -0.83278155 0.0
vn 0.61499846 -0.7885283 0.0
vn 0.67287254 -0.73975843 0.0
vn 0.7268925 -0.6867513 0.0
vn 0.77674884 -0.6298106 0.0
vn 0.822156 -0.5692622 0.0
vn 0.862854 -0.5054533 0.0
vn 0.89860964 -0.43874913 0.0
vn 0.9292181 -0.36953187 0.0
vn 0.9545041 -0.29819793 0.0
vn 0.97432274 -0.22515593 0.0
vn 0.9885606 -0.15082431 0.0
vn 0.99713606 -0.07562874 0.0
vn 0.0 0.0 1.0
vn 0.0 0.0 -1.0
vn 0.0 0.0 1.0
vn 0.0 0.0 -1.0
vn 1.0 0.0 0.0
vn 0.99706584 0.07654926 0.0
vn 0.9882805 0.1526493 0.0
vn 0.97369546 0.22785352 0.0
vn 0.95339644 0.30172062 0.0
vn 0.92750245 0.3738171 0.0
vn 0.89616555 0.44371983 0.0
vn 0.8595696 0.5110187 0.0
vn 0.8179294 0.57531863 0.0
vn 0.7714892 0.63624245 0.0
vn 0.72052157 0.6934325 0.0
vn 0.6653257 0.74655324 0.0
vn 0.60622543 0.79529285 0.0
vn 0.54356754 0.8393654 0.0
vn 0.4777198 0.87851226 0.0
vn 0.40906864 0.9125036 0.0
vn 0.33801687 0.94114006 0.0
vn 0.2649815 0.9642535 0.0
vn 0.19039111 0.98170835 0.0
vn 0.114683434 0.9934021 0.0
vn 0.038302734 0.9992662 0.0
vn -0.038302734 0.9992662 0.0
vn -0.114683434 0.9934021 0.0
vn -0.19039111 0.98170835 0.0
vn -0.2649815 0.9642535 0.0
vn -0.33801687 0.94114006 0.0
vn -0.40906864 0.9125036 0.0
vn -0.4777198 0.87851226 0.0
vn -0.54356754 0.8393654 0.0
vn -0.60622543 0.79529285 0.0
vn -0.6653257 0.74655324 0.0
vn -0.72052157 0.6934325 0.0
vn -0.7714892 0.63624245 0.0
vn -0.8179294 0.57531863 0.0
vn -0.8595696 0.5110187 0.0
vn -0.89616555 0.44371983 0.0
vn -0.92750245 0.3738171 0.0
vn -0.95339644 0.30172062 0.0
vn -0.97369546 0.22785352 0.0
vn -0.9882805 0.1526493 0.0
vn -0.99706584 0.07654926 0.0
vn -1.0 5.6655387E-16 0.0
vn -0.99706584 -0.07654926 0.0
vn -0.9882805 -0.1526493 0.0
vn -0.97369546 -0.22785352 0.0
vn -0.95339644 -0.30172062 0.0
vn -0.92750245 -0.3738171 0.0
vn -0.89616555 -0.44371983 0.0
vn -0.8595696 -0.5110187 0.0
vn -0.8179294 -0.57531863 0.0
vn -0.7714892 -0.63624245 0.0
vn -0.72052157 -0.6934325 0.0
vn -0.6653257 -0.74655324 0.0
vn -0.60622543 -0.79529285 0.0
vn -0.54356754 -0.8393654 0.0
vn -0.4777198 -0.87851226 0.0
vn -0.40906864 -0.9125036 0.0
vn -0.33801687 -0.94114006 0.0
vn -0.2649815 -0.9642535 0.0
vn -0.19039111 -0.98170835 0.0
vn -0.114683434 -0.9934021 0.0
vn -0.038302734 -0.9992662 0.0
vn 0.038302734 -0.9992662 0.0
vn 0.114683434 -0.9934021 0.0
vn 0.19039111 -0.98170835 0.0
vn 0.2649815 -0.9642535 0.0
vn 0.33801687 -0.94114006 0.0
vn 0.40906864 -0.9125036 0.0
vn 0.4777198 -0.87851226 0.0
vn 0.54356754 -0.8393654 0.0
vn 0.60622543 -0.79529285 0.0
vn 0.6653257 -0.74655324 0.0
vn 0.72052157 -0.6934325 0.0
vn 0.7714892 -0.63624245 0.0
vn 0.8179294 -0.57531863 0.0
vn 0.8595696 -0.5110187 0.0
vn 0.89616555 -0.44371983 0.0
vn 0.92750245 -0.3738171 0.0
vn 0.95339644 -0.30172062 0.0
vn 0.97369546 -0.22785352 0.0
vn 0.9882805 -0.1526493 0.0
vn 0.99706584 -0.07654926 0.0
vn 1.0 0.0 0.0
vn 0.99706584 0.07654926 0.0
vn 0.9882805 0.1526493 0.0
vn 0.97369546 0.22785352 0.0
vn 0.95339644 0.30172062 0.0
vn 0.92750245 0.3738171 0.0
vn 0.89616555 0.44371983 0.0
vn 0.8595696 0.5110187 0.0
vn 0.8179294 0.57531863 0.0
vn 0.7714892 0.63624245 0.0
vn 0.72052157 0.6934325 0.0
vn 0.6653257 0.74655324 0.0
vn 0.60622543 0.79529285 0.0
vn 0.54356754 0.8393654 0.0
vn 0.4777198 0.87851226 0.0
vn 0.40906864 0.9125036 0.0
vn 0.33801687 0.94114006 0.0
vn 0.2649815 0.9642535 0.0
vn 0.19039111 0.98170835 0.0
vn 0.114683434 0.9934021 0.0
vn 0.038302734 0.9992662 0.0
vn -0.038302734 0.9992662 0.0
vn -0.114683434 0.9934021 0.0
vn -0.19039111 0.98170835 0.0
vn -0.2649815 0.9642535 0.0
vn -0.33801687 0.94114006 0.0
vn -0.40906864 0.9125036 0.0
vn -0.4777198 0.87851226 0.0
vn -0.54356754 0.8393654 0.0
vn -0.60622543 0.79529285 0.0
vn -0.6653257 0.74655324 0.0
vn -0.72052157 0.6934325 0.0
vn -0.7714892 0.63624245 0.0
vn -0.8179294 0.57531863 0.0
vn -0.8595696 0.5110187 0.0
vn -0.89616555 0.44371983 0.0
vn -0.92750245 0.3738171 0.0
vn -0.95339644 0.30172062 0.0
vn -0.97369546 0.22785352 0.0
vn -0.9882805 0.1526493 0.0
vn -0.99706584 0.07654926 0.0
vn -1.0 5.6655387E-16 0.0
vn -0.99706584 -0.07654926 0.0
vn -0.9882805 -0.1526493 0.0
vn -0.97369546 -0.22785352 0.0
vn -0.95339644 -0.30172062 0.0
vn -0.92750245 -0.3738171 0.0
vn -0.89616555 -0.44371983 0.0
vn -0.8595696 -0.5110187 0.0
vn -0.8179294 -0.57531863 0.0
vn -0.7714892 -0.63624245 0.0
vn -0.72052157 -0.6934325 0.0
vn -0.6653257 -0.74655324 0.0
vn -0.60622543 -0.79529285 0.0
vn -0.54356754 -0.8393654 0.0
vn -0.4777198 -0.87851226 0.0
vn -0.40906864 -0.9125036 0.0
vn -0.33801687 -0.94114006 0.0
vn -0.2649815 -0.9642535 0.0
vn -0.19039111 -0.98170835 0.0
vn -0.114683434 -0.9934021 0.0
vn -0.038302734 -0.9992662 0.0
vn 0.038302734 -0.9992662 0.0
vn 0.114683434 -0.9934021 0.0
vn 0.19039111 -0.98170835 0.0
vn 0.2649815 -0.9642535 0.0
vn 0.33801687 -0.94114006 0.0
vn 0.40906864 -0.9125036 0.0
vn 0.4777198 -0.87851226 0.0
vn 0.54356754 -0.8393654 0.0
vn 0.60622543 -0.79529285 0.0
vn 0.6653257 -0.74655324 0.0
vn 0.72052157 -0.6934325 0.0
vn 0.7714892 -0.63624245 0.0
vn 0.8179294 -0.57531863 0.0
vn 0.8595696 -0.5110187 0.0
vn 0.89616555 -0.44371983 0.0
vn 0.92750245 -0.3738171 0.0
vn 0.95339644 -0.30172062 0.0
vn 0.97369546 -0.22785352 0.0
vn 0.9882805 -0.1526493 0.0
vn 0.99706584 -0.07654926 0.0
g 1_Tube interne 
f 84/85/84 1/1/1 85/86/85
f 2/2/2 85/86/85 1/1/1
f 86/87/86 85/86/85 2/2/2
f 2/2/2 3/3/3 86/87/86
f 87/88/87 86/87/86 3/3/3
f 3/3/3 4/4/4 87/88/87
f 88/89/88 87/88/87 4/4/4
f 4/4/4 5/5/5 88/89/88
f 89/90/89 88/89/88 5/5/5
f 5/5/5 6/6/6 89/90/89
f 90/91/90 89/90/89 6/6/6
f 6/6/6 7/7/7 90/91/90
f 91/92/91 90/91/90 8/8/8
f 7/7/7 8/8/8 90/91/90
f 91/92/91 8/8/8 92/93/92
f 9/9/9 92/93/92 8/8/8
f 93/94/93 92/93/92 9/9/9
f 9/9/9 10/10/10 93/94/93
f 93/94/93 10/10/10 94/95/94
f 11/11/11 94/95/94 10/10/10
f 95/96/95 94/95/94 11/11/11
f 11/11/11 12/12/12 95/96/95
f 95/96/95 12/12/12 96/97/96
f 13/13/13 96/97/96 12/12/12
f 97/98/97 96/97/96 14/14/14
f 13/13/13 14/14/14 96/97/96
f 98/99/98 97/98/97 15/15/15
f 14/14/14 15/15/15 97/98/97
f 99/100/99 98/99/98 15/15/15
f 15/15/15 16/16/16 99/100/99
f 99/100/99 16/16/16 100/101/100
f 17/17/17 100/101/100 16/16/16
f 101/102/101 100/101/100 17/17/17
f 17/17/17 18/18/18 101/102/101
f 102/103/102 101/102/101 18/18/18
f 18/18/18 19/19/19 102/103/102
f 103/104/103 102/103/102 19/19/19
f 19/19/19 20/20/20 103/104/103
f 104/105/104 103/104/103 21/21/21
f 20/20/20 21/21/21 103/104/103
f 105/106/105 104/105/104 21/21/21
f 21/21/21 22/22/22 105/106/105
f 106/107/106 105/106/105 23/23/23
f 22/22/22 23/23/23 105/106/105
f 107/108/107 106/107/106 24/24/24
f 23/23/23 24/24/24 106/107/106
f 108/109/108 107/108/107 25/25/25
f 24/24/24 25/25/25 107/108/107
f 109/110/109 108/109/108 25/25/25
f 25/25/25 26/26/26 109/110/109
f 110/111/110 109/110/109 27/27/27
f 26/26/26 27/27/27 109/110/109
f 110/111/110 27/27/27 111/112/111
f 28/28/28 111/112/111 27/27/27
f 112/113/112 111/112/111 28/28/28
f 28/28/28 29/29/29 112/113/112
f 112/113/112 29/29/29 113/114/113
f 30/30/30 113/114/113 29/29/29
f 113/114/113 30/30/30 114/115/114
f 31/31/31 114/115/114 30/30/30
f 115/116/115 114/115/114 32/32/32
f 31/31/31 32/32/32 114/115/114
f 116/117/116 115/116/115 32/32/32
f 32/32/32 33/33/33 116/117/116
f 116/117/116 33/33/33 117/118/117
f 34/34/34 117/118/117 33/33/33
f 118/119/118 117/118/117 34/34/34
f 34/34/34 35/35/35 118/119/118
f 118/119/118 35/35/35 119/120/119
f 36/36/36 119/120/119 35/35/35
f 120/121/120 119/120/119 37/37/37
f 36/36/36 37/37/37 119/120/119
f 121/122/121 120/121/120 37/37/37
f 37/37/37 38/38/38 121/122/121
f 122/123/122 121/122/121 39/39/39
f 38/38/38 39/39/39 121/122/121
f 122/123/122 39/39/39 123/124/123
f 40/40/40 123/124/123 39/39/39
f 124/125/124 123/124/123 41/41/41
f 40/40/40 41/41/41 123/124/123
f 125/126/125 124/125/124 42/42/42
f 41/41/41 42/42/42 124/125/124
f 126/127/126 125/126/125 42/42/42
f 42/42/42 43/43/43 126/127/126
f 127/128/127 126/127/126 44/44/44
f 43/43/43 44/44/44 126/127/126
f 128/129/128 127/128/127 45/45/45
f 44/44/44 45/45/45 127/128/127
f 128/129/128 45/45/45 129/130/129
f 46/46/46 129/130/129 45/45/45
f 130/131/130 129/130/129 47/47/47
f 46/46/46 47/47/47 129/130/129
f 131/132/131 130/131/130 47/47/47
f 47/47/47 48/48/48 131/132/131
f 132/133/132 131/132/131 49/49/49
f 48/48/48 49/49/49 131/132/131
f 132/133/132 49/49/49 133/134/133
f 50/50/50 133/134/133 49/49/49
f 134/135/134 133/134/133 50/50/50
f 50/50/50 51/51/51 134/135/134
f 134/135/134 51/51/51 135/136/135
f 52/52/52 135/136/135 51/51/51
f 136/137/136 135/136/135 52/52/52
f 52/52/52 53/53/53 136/137/136
f 137/138/137 136/137/136 54/54/54
f 53/53/53 54/54/54 136/137/136
f 137/138/137 54/54/54 138/139/138
f 55/55/55 138/139/138 54/54/54
f 138/139/138 55/55/55 139/140/139
f 56/56/56 139/140/139 55/55/55
f 140/141/140 139/140/139 56/56/56
f 56/56/56 57/57/57 140/141/140
f 140/141/140 57/57/57 141/142/141
f 58/58/58 141/142/141 57/57/57
f 142/143/142 141/142/141 59/59/59
f 58/58/58 59/59/59 141/142/141
f 143/144/143 142/143/142 59/59/59
f 59/59/59 60/60/60 143/144/143
f 144/145/144 143/144/143 61/61/61
f 60/60/60 61/61/61 143/144/143
f 145/146/145 144/145/144 62/62/62
f 61/61/61 62/62/62 144/145/144
f 146/147/146 145/146/145 63/63/63
f 62/62/62 63/63/63 145/146/145
f 147/148/147 146/147/146 63/63/63
f 63/63/63 64/64/64 147/148/147
f 148/149/148 147/148/147 65/65/65
f 64/64/64 65/65/65 147/148/147
f 149/150/149 148/149/148 65/65/65
f 65/65/65 66/66/66 149/150/149
f 150/151/150 149/150/149 66/66/66
f 66/66/66 67/67/67 150/151/150
f 151/152/151 150/151/150 67/67/67
f 67/67/67 68/68/68 151/152/151
f 151/152/151 68/68/68 152/153/152
f 69/69/69 152/153/152 68/68/68
f 153/154/153 152/153/152 69/69/69
f 69/69/69 70/70/70 153/154/153
f 154/155/154 153/154/153 71/71/71
f 70/70/70 71/71/71 153/154/153
f 155/156/155 154/155/154 72/72/72
f 71/71/71 72/72/72 154/155/154
f 155/156/155 72/72/72 156/157/156
f 73/73/73 156/157/156 72/72/72
f 157/158/157 156/157/156 73/73/73
f 73/73/73 74/74/74 157/158/157
f 157/158/157 74/74/74 158/159/158
f 75/75/75 158/159/158 74/74/74
f 159/160/159 158/159/158 75/75/75
f 75/75/75 76/76/76 159/160/159
f 159/160/159 76/76/76 160/161/160
f 77/77/77 160/161/160 76/76/76
f 161/162/161 160/161/160 78/78/78
f 77/77/77 78/78/78 160/161/160
f 162/163/162 161/162/161 78/78/78
f 78/78/78 79/79/79 162/163/162
f 163/164/163 162/163/162 79/79/79
f 79/79/79 80/80/80 163/164/163
f 164/165/164 163/164/163 80/80/80
f 80/80/80 81/81/81 164/165/164
f 165/166/165 164/165/164 81/81/81
f 81/81/81 82/82/82 165/166/165
f 166/167/166 165/166/165 82/82/82
f 82/82/82 83/83/83 166/167/166
f 166/167/166 83/83/83 84/168/84
f 1/84/1 84/168/84 83/83/83
f 251/254/251 168/170/168 250/253/250
f 167/169/167 250/253/250 168/170/168
f 251/254/251 252/255/252 168/170/168
f 169/171/169 168/170/168 252/255/252
f 252/255/252 253/256/253 170/172/170
f 170/172/170 169/171/169 252/255/252
f 253/256/253 254/257/254 171/173/171
f 171/173/171 170/172/170 253/256/253
f 254/257/254 255/258/255 172/174/172
f 172/174/172 171/173/171 254/257/254
f 255/258/255 256/259/256 173/175/173
f 173/175/173 172/174/172 255/258/255
f 256/259/256 257/260/257 173/175/173
f 174/176/174 173/175/173 257/260/257
f 257/260/257 258/261/258 175/177/175
f 175/177/175 174/176/174 257/260/257
f 259/262/259 176/178/176 258/261/258
f 175/177/175 258/261/258 176/178/176
f 260/263/260 177/179/177 259/262/259
f 176/178/176 259/262/259 177/179/177
f 260/263/260 261/264/261 178/180/178
f 178/180/178 177/179/177 260/263/260
f 261/264/261 262/265/262 178/180/178
f 179/181/179 178/180/178 262/265/262
f 262/265/262 263/266/263 180/182/180
f 180/182/180 179/181/179 262/265/262
f 264/267/264 181/183/181 263/266/263
f 180/182/180 263/266/263 181/183/181
f 264/267/264 265/268/265 182/184/182
f 182/184/182 181/183/181 264/267/264
f 266/269/266 183/185/183 265/268/265
f 182/184/182 265/268/265 183/185/183
f 266/269/266 267/270/267 183/185/183
f 184/186/184 183/185/183 267/270/267
f 267/270/267 268/271/268 185/187/185
f 185/187/185 184/186/184 267/270/267
f 268/271/268 269/272/269 186/188/186
f 186/188/186 185/187/185 268/271/268
f 269/272/269 270/273/270 187/189/187
f 187/189/187 186/188/186 269/272/269
f 271/274/271 188/190/188 270/273/270
f 187/189/187 270/273/270 188/190/188
f 271/274/271 272/275/272 189/191/189
f 189/191/189 188/190/188 271/274/271
f 272/275/272 273/276/273 189/191/189
f 190/192/190 189/191/189 273/276/273
f 273/276/273 274/277/274 191/193/191
f 191/193/191 190/192/190 273/276/273
f 274/277/274 275/278/275 191/193/191
f 192/194/192 191/193/191 275/278/275
f 275/278/275 276/279/276 193/195/193
f 193/195/193 192/194/192 275/278/275
f 276/279/276 277/280/277 194/196/194
f 194/196/194 193/195/193 276/279/276
f 277/280/277 278/281/278 195/197/195
f 195/197/195 194/196/194 277/280/277
f 278/281/278 279/282/279 195/197/195
f 196/198/196 195/197/195 279/282/279
f 279/282/279 280/283/280 196/198/196
f 197/199/197 196/198/196 280/283/280
f 281/284/281 198/200/198 280/283/280
f 197/199/197 280/283/280 198/200/198
f 281/284/281 282/285/282 198/200/198
f 199/201/199 198/200/198 282/285/282
f 283/286/283 200/202/200 282/285/282
f 199/201/199 282/285/282 200/202/200
f 283/286/283 284/287/284 200/202/200
f 201/203/201 200/202/200 284/287/284
f 284/287/284 285/288/285 201/203/201
f 202/204/202 201/203/201 285/288/285
f 286/289/286 203/205/203 285/288/285
f 202/204/202 285/288/285 203/205/203
f 287/290/287 204/206/204 286/289/286
f 203/205/203 286/289/286 204/206/204
f 287/290/287 288/291/288 205/207/205
f 205/207/205 204/206/204 287/290/287
f 288/291/288 289/292/289 206/208/206
f 206/208/206 205/207/205 288/291/288
f 289/292/289 290/293/290 207/209/207
f 207/209/207 206/208/206 289/292/289
f 290/293/290 291/294/291 208/210/208
f 208/210/208 207/209/207 290/293/290
f 291/294/291 292/295/292 208/210/208
f 209/211/209 208/210/208 292/295/292
f 292/295/292 293/296/293 210/212/210
f 210/212/210 209/211/209 292/295/292
f 293/296/293 294/297/294 211/213/211
f 211/213/211 210/212/210 293/296/293
f 294/297/294 295/298/295 212/214/212
f 212/214/212 211/213/211 294/297/294
f 295/298/295 296/299/296 213/215/213
f 213/215/213 212/214/212 295/298/295
f 297/300/297 214/216/214 296/299/296
f 213/215/213 296/299/296 214/216/214
f 298/301/298 215/217/215 297/300/297
f 214/216/214 297/300/297 215/217/215
f 298/301/298 299/302/299 215/217/215
f 216/218/216 215/217/215 299/302/299
f 299/302/299 300/303/300 216/218/216
f 217/219/217 216/218/216 300/303/300
f 301/304/301 218/220/218 300/303/300
f 217/219/217 300/303/300 218/220/218
f 301/304/301 302/305/302 218/220/218
f 219/221/219 218/220/218 302/305/302
f 303/306/303 220/222/220 302/305/302
f 219/221/219 302/305/302 220/222/220
f 303/306/303 304/307/304 220/222/220
f 221/223/221 220/222/220 304/307/304
f 304/307/304 305/308/305 221/223/221
f 222/224/222 221/223/221 305/308/305
f 305/308/305 306/309/306 223/225/223
f 223/225/223 222/224/222 305/308/305
f 306/309/306 307/310/307 224/226/224
f 224/226/224 223/225/223 306/309/306
f 307/310/307 308/311/308 225/227/225
f 225/227/225 224/226/224 307/310/307
f 308/311/308 309/312/309 225/227/225
f 226/228/226 225/227/225 309/312/309
f 309/312/309 310/313/310 227/229/227
f 227/229/227 226/228/226 309/312/309
f 310/313/310 311/314/311 227/229/227
f 228/230/228 227/229/227 311/314/311
f 311/314/311 312/315/312 229/231/229
f 229/231/229 228/230/228 311/314/311
f 313/316/313 230/232/230 312/315/312
f 229/231/229 312/315/312 230/232/230
f 313/316/313 314/317/314 231/233/231
f 231/233/231 230/232/230 313/316/313
f 314/317/314 315/318/315 232/234/232
f 232/234/232 231/233/231 314/317/314
f 315/318/315 316/319/316 233/235/233
f 233/235/233 232/234/232 315/318/315
f 316/319/316 317/320/317 233/235/233
f 234/236/234 233/235/233 317/320/317
f 318/321/318 235/237/235 317/320/317
f 234/236/234 317/320/317 235/237/235
f 318/321/318 319/322/319 236/238/236
f 236/238/236 235/237/235 318/321/318
f 320/323/320 237/239/237 319/322/319
f 236/238/236 319/322/319 237/239/237
f 320/323/320 321/324/321 238/240/238
f 238/240/238 237/239/237 320/323/320
f 321/324/321 322/325/322 238/240/238
f 239/241/239 238/240/238 322/325/322
f 322/325/322 323/326/323 240/242/240
f 240/242/240 239/241/239 322/325/322
f 324/327/324 241/243/241 323/326/323
f 240/242/240 323/326/323 241/243/241
f 325/328/325 242/244/242 324/327/324
f 241/243/241 324/327/324 242/244/242
f 325/328/325 326/329/326 243/245/243
f 243/245/243 242/244/242 325/328/325
f 326/329/326 327/330/327 243/245/243
f 244/246/244 243/245/243 327/330/327
f 327/330/327 328/331/328 245/247/245
f 245/247/245 244/246/244 327/330/327
f 328/331/328 329/332/329 246/248/246
f 246/248/246 245/247/245 328/331/328
f 329/332/329 330/333/330 247/249/247
f 247/249/247 246/248/246 329/332/329
f 330/333/330 331/334/331 248/250/248
f 248/250/248 247/249/247 330/333/330
f 331/334/331 332/335/332 248/250/248
f 249/251/249 248/250/248 332/335/332
f 250/336/250 167/252/167 332/335/332
f 249/251/249 332/335/332 167/252/167
f 167/337/333 168/338/333 2/422/333
f 2/422/333 1/421/333 167/337/333
f 169/339/333 3/423/333 2/422/333
f 2/422/333 168/338/333 169/339/333
f 169/339/333 170/340/333 4/424/333
f 4/424/333 3/423/333 169/339/333
f 170/340/333 171/341/333 5/425/333
f 5/425/333 4/424/333 170/340/333
f 171/341/333 172/342/333 5/425/333
f 6/426/333 5/425/333 172/342/333
f 172/342/333 173/343/333 7/427/333
f 7/427/333 6/426/333 172/342/333
f 173/343/333 174/344/333 8/428/333
f 8/428/333 7/427/333 173/343/333
f 175/345/333 9/429/333 8/428/333
f 8/428/333 174/344/333 175/345/333
f 175/345/333 176/346/333 10/430/333
f 10/430/333 9/429/333 175/345/333
f 176/346/333 177/347/333 11/431/333
f 11/431/333 10/430/333 176/346/333
f 11/431/333 177/347/333 12/432/333
f 178/348/333 12/432/333 177/347/333
f 178/348/333 179/349/333 13/433/333
f 13/433/333 12/432/333 178/348/333
f 180/350/333 14/434/333 13/433/333
f 13/433/333 179/349/333 180/350/333
f 14/434/333 180/350/333 15/435/333
f 181/351/333 15/435/333 180/350/333
f 181/351/333 182/352/333 15/435/333
f 16/436/333 15/435/333 182/352/333
f 183/353/333 17/437/333 182/352/333
f 16/436/333 182/352/333 17/437/333
f 17/437/333 183/353/333 184/354/333
f 184/354/333 18/438/333 17/437/333
f 185/355/333 19/439/333 18/438/333
f 18/438/333 184/354/333 185/355/333
f 19/439/333 185/355/333 20/440/333
f 186/356/333 20/440/333 185/355/333
f 187/357/333 21/441/333 186/356/333
f 20/440/333 186/356/333 21/441/333
f 21/441/333 187/357/333 22/442/333
f 188/358/333 22/442/333 187/357/333
f 188/358/333 189/359/333 22/442/333
f 23/443/333 22/442/333 189/359/333
f 189/359/333 190/360/333 24/444/333
f 24/444/333 23/443/333 189/359/333
f 25/445/333 24/444/333 191/361/333
f 190/360/333 191/361/333 24/444/333
f 26/446/333 25/445/333 191/361/333
f 191/361/333 192/362/333 26/446/333
f 192/362/333 193/363/333 26/446/333
f 27/447/333 26/446/333 193/363/333
f 27/447/333 193/363/333 194/364/333
f 194/364/333 28/448/333 27/447/333
f 194/364/333 195/365/333 29/449/333
f 29/449/333 28/448/333 194/364/333
f 29/449/333 195/365/333 196/366/333
f 196/366/333 30/450/333 29/449/333
f 30/450/333 196/366/333 31/451/333
f 197/367/333 31/451/333 196/366/333
f 31/451/333 197/367/333 198/368/333
f 198/368/333 32/452/333 31/451/333
f 32/452/333 198/368/333 33/453/333
f 199/369/333 33/453/333 198/368/333
f 33/453/333 199/369/333 200/370/333
f 200/370/333 34/454/333 33/453/333
f 35/455/333 34/454/333 200/370/333
f 200/370/333 201/371/333 35/455/333
f 201/371/333 202/372/333 35/455/333
f 36/456/333 35/455/333 202/372/333
f 37/457/333 36/456/333 202/372/333
f 202/372/333 203/373/333 37/457/333
f 203/373/333 204/374/333 38/458/333
f 38/458/333 37/457/333 203/373/333
f 204/374/333 205/375/333 38/458/333
f 39/459/333 38/458/333 205/375/333
f 39/459/333 205/375/333 40/460/333
f 206/376/333 40/460/333 205/375/333
f 206/376/333 207/377/333 40/460/333
f 41/461/333 40/460/333 207/377/333
f 41/461/333 207/377/333 208/378/333
f 208/378/333 42/462/333 41/461/333
f 208/378/333 209/379/333 42/462/333
f 43/463/333 42/462/333 209/379/333
f 44/464/333 43/463/333 209/379/333
f 209/379/333 210/380/333 44/464/333
f 44/464/333 210/380/333 45/465/333
f 211/381/333 45/465/333 210/380/333
f 212/382/333 46/466/333 45/465/333
f 45/465/333 211/381/333 212/382/333
f 46/466/333 212/382/333 47/467/333
f 213/383/333 47/467/333 212/382/333
f 47/467/333 213/383/333 214/384/333
f 214/384/333 48/468/333 47/467/333
f 215/385/333 49/469/333 48/468/333
f 48/468/333 214/384/333 215/385/333
f 49/469/333 215/385/333 50/470/333
f 216/386/333 50/470/333 215/385/333
f 217/387/333 51/471/333 50/470/333
f 50/470/333 216/386/333 217/387/333
f 51/471/333 217/387/333 52/472/333
f 218/388/333 52/472/333 217/387/333
f 52/472/333 218/388/333 219/389/333
f 219/389/333 53/473/333 52/472/333
f 220/390/333 54/474/333 219/389/333
f 53/473/333 219/389/333 54/474/333
f 221/391/333 55/475/333 54/474/333
f 54/474/333 220/390/333 221/391/333
f 222/392/333 56/476/333 221/391/333
f 55/475/333 221/391/333 56/476/333
f 56/476/333 222/392/333 223/393/333
f 223/393/333 57/477/333 56/476/333
f 58/478/333 57/477/333 223/393/333
f 223/393/333 224/394/333 58/478/333
f 225/395/333 59/479/333 224/394/333
f 58/478/333 224/394/333 59/479/333
f 60/480/333 59/479/333 226/396/333
f 225/395/333 226/396/333 59/479/333
f 227/397/333 61/481/333 226/396/333
f 60/480/333 226/396/333 61/481/333
f 228/398/333 62/482/333 61/481/333
f 61/481/333 227/397/333 228/398/333
f 62/482/333 228/398/333 63/483/333
f 229/399/333 63/483/333 228/398/333
f 229/399/333 230/400/333 63/483/333
f 64/484/333 63/483/333 230/400/333
f 65/485/333 64/484/333 231/401/333
f 230/400/333 231/401/333 64/484/333
f 231/401/333 232/402/333 65/485/333
f 66/486/333 65/485/333 232/402/333
f 67/487/333 66/486/333 232/402/333
f 232/402/333 233/403/333 67/487/333
f 233/403/333 234/404/333 68/488/333
f 68/488/333 67/487/333 233/403/333
f 235/405/333 69/489/333 68/488/333
f 68/488/333 234/404/333 235/405/333
f 235/405/333 236/406/333 70/490/333
f 70/490/333 69/489/333 235/405/333
f 237/407/333 71/491/333 70/490/333
f 70/490/333 236/406/333 237/407/333
f 238/408/333 72/492/333 237/407/333
f 71/491/333 237/407/333 72/492/333
f 239/409/333 73/493/333 72/492/333
f 72/492/333 238/408/333 239/409/333
f 240/410/333 74/494/333 73/493/333
f 73/493/333 239/409/333 240/410/333
f 241/411/333 75/495/333 74/494/333
f 74/494/333 240/410/333 241/411/333
f 242/412/333 76/496/333 75/495/333
f 75/495/333 241/411/333 242/412/333
f 77/497/333 76/496/333 242/412/333
f 242/412/333 243/413/333 77/497/333
f 244/414/333 78/498/333 77/497/333
f 77/497/333 243/413/333 244/414/333
f 245/415/333 79/499/333 78/498/333
f 78/498/333 244/414/333 245/415/333
f 246/416/333 80/500/333 245/415/333
f 79/499/333 245/415/333 80/500/333
f 81/501/333 80/500/333 247/417/333
f 246/416/333 247/417/333 80/500/333
f 248/418/333 82/502/333 81/501/333
f 81/501/333 247/417/333 248/418/333
f 83/503/333 82/502/333 248/418/333
f 248/418/333 249/419/333 83/503/333
f 167/420/333 1/504/333 83/503/333
f 83/503/333 249/419/333 167/420/333
f 85/590/334 251/506/334 250/505/334
f 250/505/334 84/589/334 85/590/334
f 85/590/334 252/507/334 251/506/334
f 252/507/334 85/590/334 86/591/334
f 87/592/334 253/508/334 252/507/334
f 252/507/334 86/591/334 87/592/334
f 88/593/334 254/509/334 253/508/334
f 253/508/334 87/592/334 88/593/334
f 88/593/334 255/510/334 254/509/334
f 255/510/334 88/593/334 89/594/334
f 90/595/334 256/511/334 255/510/334
f 255/510/334 89/594/334 90/595/334
f 91/596/334 257/512/334 256/511/334
f 256/511/334 90/595/334 91/596/334
f 91/596/334 258/513/334 257/512/334
f 258/513/334 91/596/334 92/597/334
f 93/598/334 259/514/334 258/513/334
f 258/513/334 92/597/334 93/598/334
f 94/599/334 260/515/334 259/514/334
f 259/514/334 93/598/334 94/599/334
f 95/600/334 261/516/334 260/515/334
f 260/515/334 94/599/334 95/600/334
f 96/601/334 262/517/334 261/516/334
f 261/516/334 95/600/334 96/601/334
f 96/601/334 263/518/334 262/517/334
f 263/518/334 96/601/334 97/602/334
f 98/603/334 264/519/334 263/518/334
f 263/518/334 97/602/334 98/603/334
f 98/603/334 265/520/334 264/519/334
f 265/520/334 98/603/334 99/604/334
f 100/605/334 266/521/334 265/520/334
f 265/520/334 99/604/334 100/605/334
f 100/605/334 267/522/334 266/521/334
f 267/522/334 100/605/334 101/606/334
f 101/606/334 268/523/334 267/522/334
f 268/523/334 101/606/334 102/607/334
f 103/608/334 269/524/334 268/523/334
f 268/523/334 102/607/334 103/608/334
f 104/609/334 270/525/334 269/524/334
f 269/524/334 103/608/334 104/609/334
f 105/610/334 270/525/334 104/609/334
f 270/525/334 105/610/334 271/526/334
f 272/527/334 271/526/334 105/610/334
f 105/610/334 106/611/334 272/527/334
f 107/612/334 272/527/334 106/611/334
f 272/527/334 107/612/334 273/528/334
f 274/529/334 273/528/334 107/612/334
f 107/612/334 108/613/334 274/529/334
f 109/614/334 274/529/334 108/613/334
f 274/529/334 109/614/334 275/530/334
f 276/531/334 275/530/334 109/614/334
f 109/614/334 110/615/334 276/531/334
f 277/532/334 276/531/334 110/615/334
f 110/615/334 111/616/334 277/532/334
f 112/617/334 277/532/334 111/616/334
f 277/532/334 112/617/334 278/533/334
f 279/534/334 278/533/334 112/617/334
f 112/617/334 113/618/334 279/534/334
f 114/619/334 279/534/334 113/618/334
f 279/534/334 114/619/334 280/535/334
f 281/536/334 280/535/334 114/619/334
f 114/619/334 115/620/334 281/536/334
f 116/621/334 281/536/334 115/620/334
f 281/536/334 116/621/334 282/537/334
f 283/538/334 282/537/334 116/621/334
f 116/621/334 117/622/334 283/538/334
f 118/623/334 283/538/334 117/622/334
f 283/538/334 118/623/334 284/539/334
f 285/540/334 284/539/334 118/623/334
f 118/623/334 119/624/334 285/540/334
f 120/625/334 285/540/334 119/624/334
f 285/540/334 120/625/334 286/541/334
f 121/626/334 286/541/334 120/625/334
f 286/541/334 121/626/334 287/542/334
f 288/543/334 287/542/334 121/626/334
f 121/626/334 122/627/334 288/543/334
f 123/628/334 288/543/334 122/627/334
f 288/543/334 123/628/334 289/544/334
f 290/545/334 289/544/334 123/628/334
f 123/628/334 124/629/334 290/545/334
f 291/546/334 290/545/334 124/629/334
f 124/629/334 125/630/334 291/546/334
f 125/630/334 292/547/334 291/546/334
f 292/547/334 125/630/334 126/631/334
f 292/547/334 126/631/334 127/632/334
f 127/632/334 293/548/334 292/547/334
f 293/548/334 127/632/334 128/633/334
f 128/633/334 294/549/334 293/548/334
f 295/550/334 128/633/334 129/634/334
f 128/633/334 295/550/334 294/549/334
f 295/550/334 129/634/334 130/635/334
f 130/635/334 296/551/334 295/550/334
f 297/552/334 130/635/334 131/636/334
f 130/635/334 297/552/334 296/551/334
f 298/553/334 131/636/334 132/637/334
f 131/636/334 298/553/334 297/552/334
f 298/553/334 132/637/334 133/638/334
f 133/638/334 299/554/334 298/553/334
f 300/555/334 133/638/334 134/639/334
f 133/638/334 300/555/334 299/554/334
f 300/555/334 134/639/334 135/640/334
f 135/640/334 301/556/334 300/555/334
f 302/557/334 135/640/334 136/641/334
f 135/640/334 302/557/334 301/556/334
f 302/557/334 136/641/334 137/642/334
f 137/642/334 303/558/334 302/557/334
f 304/559/334 137/642/334 138/643/334
f 137/642/334 304/559/334 303/558/334
f 304/559/334 138/643/334 139/644/334
f 139/644/334 305/560/334 304/559/334
f 306/561/334 139/644/334 140/645/334
f 139/644/334 306/561/334 305/560/334
f 306/561/334 140/645/334 141/646/334
f 141/646/334 307/562/334 306/561/334
f 307/562/334 141/646/334 142/647/334
f 142/647/334 308/563/334 307/562/334
f 309/564/334 142/647/334 143/648/334
f 142/647/334 309/564/334 308/563/334
f 309/564/334 143/648/334 144/649/334
f 144/649/334 310/565/334 309/564/334
f 311/566/334 144/649/334 145/650/334
f 144/649/334 311/566/334 310/565/334
f 311/566/334 145/650/334 146/651/334
f 146/651/334 312/567/334 311/566/334
f 313/568/334 146/651/334 147/652/334
f 146/651/334 313/568/334 312/567/334
f 147/652/334 148/653/334 314/569/334
f 314/569/334 313/568/334 147/652/334
f 148/653/334 149/654/334 315/570/334
f 315/570/334 314/569/334 148/653/334
f 315/570/334 150/655/334 316/571/334
f 150/655/334 315/570/334 149/654/334
f 316/571/334 151/656/334 317/572/334
f 151/656/334 316/571/334 150/655/334
f 151/656/334 152/657/334 318/573/334
f 318/573/334 317/572/334 151/656/334
f 318/573/334 153/658/334 319/574/334
f 153/658/334 318/573/334 152/657/334
f 153/658/334 154/659/334 320/575/334
f 320/575/334 319/574/334 153/658/334
f 320/575/334 155/660/334 321/576/334
f 155/660/334 320/575/334 154/659/334
f 155/660/334 156/661/334 322/577/334
f 322/577/334 321/576/334 155/660/334
f 156/661/334 157/662/334 323/578/334
f 323/578/334 322/577/334 156/661/334
f 157/662/334 158/663/334 324/579/334
f 324/579/334 323/578/334 157/662/334
f 158/663/334 159/664/334 325/580/334
f 325/580/334 324/579/334 158/663/334
f 325/580/334 160/665/334 326/581/334
f 160/665/334 325/580/334 159/664/334
f 160/665/334 161/666/334 327/582/334
f 327/582/334 326/581/334 160/665/334
f 161/666/334 162/667/334 328/583/334
f 328/583/334 327/582/334 161/666/334
f 328/583/334 163/668/334 329/584/334
f 163/668/334 328/583/334 162/667/334
f 163/668/334 164/669/334 330/585/334
f 330/585/334 329/584/334 163/668/334
f 164/669/334 165/670/334 331/586/334
f 331/586/334 330/585/334 164/669/334
f 331/586/334 166/671/334 332/587/334
f 166/671/334 331/586/334 165/670/334
f 166/671/334 84/672/334 250/588/334
f 250/588/334 332/587/334 166/671/334
g 2_Rétension moteur 
f 333//335 335//335 336//335
f 334//336 418//336 417//336
f 333//335 336//335 337//335
f 334//336 419//336 418//336
f 333//335 337//335 338//335
f 334//336 420//336 419//336
f 333//335 338//335 339//335
f 334//336 421//336 420//336
f 333//335 339//335 340//335
f 334//336 422//336 421//336
f 333//335 340//335 341//335
f 334//336 423//336 422//336
f 333//335 341//335 342//335
f 334//336 424//336 423//336
f 333//335 342//335 343//335
f 334//336 425//336 424//336
f 333//335 343//335 344//335
f 334//336 426//336 425//336
f 333//335 344//335 345//335
f 334//336 427//336 426//336
f 333//335 345//335 346//335
f 334//336 428//336 427//336
f 333//335 346//335 347//335
f 334//336 429//336 428//336
f 333//335 347//335 348//335
f 334//336 430//336 429//336
f 333//335 348//335 349//335
f 334//336 431//336 430//336
f 333//335 349//335 350//335
f 334//336 432//336 431//336
f 333//335 350//335 351//335
f 334//336 433//336 432//336
f 333//335 351//335 352//335
f 334//336 434//336 433//336
f 333//335 352//335 353//335
f 334//336 435//336 434//336
f 333//335 353//335 354//335
f 334//336 436//336 435//336
f 333//335 354//335 355//335
f 334//336 437//336 436//336
f 333//335 355//335 356//335
f 334//336 438//336 437//336
f 333//335 356//335 357//335
f 334//336 439//336 438//336
f 333//335 357//335 358//335
f 334//336 440//336 439//336
f 333//335 358//335 359//335
f 334//336 441//336 440//336
f 333//335 359//335 360//335
f 334//336 442//336 441//336
f 333//335 360//335 361//335
f 334//336 443//336 442//336
f 333//335 361//335 362//335
f 334//336 444//336 443//336
f 333//335 362//335 363//335
f 334//336 445//336 444//336
f 333//335 363//335 364//335
f 334//336 446//336 445//336
f 333//335 364//335 365//335
f 334//336 447//336 446//336
f 333//335 365//335 366//335
f 334//336 448//336 447//336
f 333//335 366//335 367//335
f 334//336 449//336 448//336
f 333//335 367//335 368//335
f 334//336 450//336 449//336
f 333//335 368//335 369//335
f 334//336 451//336 450//336
f 333//335 369//335 370//335
f 334//336 452//336 451//336
f 333//335 370//335 371//335
f 334//336 453//336 452//336
f 333//335 371//335 372//335
f 334//336 454//336 453//336
f 333//335 372//335 373//335
f 334//336 455//336 454//336
f 333//335 373//335 374//335
f 334//336 456//336 455//336
f 333//335 374//335 375//335
f 334//336 457//336 456//336
f 333//335 375//335 376//335
f 334//336 458//336 457//336
f 333//335 376//335 377//335
f 334//336 459//336 458//336
f 333//335 377//335 378//335
f 334//336 460//336 459//336
f 333//335 378//335 379//335
f 334//336 461//336 460//336
f 333//335 379//335 380//335
f 334//336 462//336 461//336
f 333//335 380//335 381//335
f 334//336 463//336 462//336
f 333//335 381//335 382//335
f 334//336 464//336 463//336
f 333//335 382//335 383//335
f 334//336 465//336 464//336
f 333//335 383//335 384//335
f 334//336 466//336 465//336
f 333//335 384//335 385//335
f 334//336 467//336 466//336
f 333//335 385//335 386//335
f 334//336 468//336 467//336
f 333//335 386//335 387//335
f 334//336 469//336 468//336
f 333//335 387//335 388//335
f 334//336 470//336 469//336
f 333//335 388//335 389//335
f 334//336 471//336 470//336
f 333//335 389//335 390//335
f 334//336 472//336 471//336
f 333//335 390//335 391//335
f 334//336 473//336 472//336
f 333//335 391//335 392//335
f 334//336 474//336 473//336
f 333//335 392//335 393//335
f 334//336 475//336 474//336
f 333//335 393//335 394//335
f 334//336 476//336 475//336
f 333//335 394//335 395//335
f 334//336 477//336 476//336
f 333//335 395//335 396//335
f 334//336 478//336 477//336
f 333//335 396//335 397//335
f 334//336 479//336 478//336
f 333//335 397//335 398//335
f 334//336 480//336 479//336
f 333//335 398//335 399//335
f 334//336 481//336 480//336
f 333//335 399//335 400//335
f 334//336 482//336 481//336
f 333//335 400//335 401//335
f 334//336 483//336 482//336
f 333//335 401//335 402//335
f 334//336 484//336 483//336
f 333//335 402//335 403//335
f 334//336 485//336 484//336
f 333//335 403//335 404//335
f 334//336 486//336 485//336
f 333//335 404//335 405//335
f 334//336 487//336 486//336
f 333//335 405//335 406//335
f 334//336 488//336 487//336
f 333//335 406//335 407//335
f 334//336 489//336 488//336
f 333//335 407//335 408//335
f 334//336 490//336 489//336
f 333//335 408//335 409//335
f 334//336 491//336 490//336
f 333//335 409//335 410//335
f 334//336 492//336 491//336
f 333//335 410//335 411//335
f 334//336 493//336 492//336
f 333//335 411//335 412//335
f 334//336 494//336 493//336
f 333//335 412//335 413//335
f 334//336 495//336 494//336
f 333//335 413//335 414//335
f 334//336 496//336 495//336
f 333//335 414//335 415//335
f 334//336 497//336 496//336
f 333//335 415//335 416//335
f 334//336 498//336 497//336
f 333//335 416//335 335//335
f 334//336 417//336 498//336
f 417/756/419 418/757/420 335/673/337
f 336/674/338 335/673/337 418/757/420
f 418/757/420 419/758/421 337/675/339
f 337/675/339 336/674/338 418/757/420
f 419/758/421 420/759/422 338/676/340
f 338/676/340 337/675/339 419/758/421
f 420/759/422 421/760/423 338/676/340
f 339/677/341 338/676/340 421/760/423
f 421/760/423 422/761/424 340/678/342
f 340/678/342 339/677/341 421/760/423
f 422/761/424 423/762/425 340/678/342
f 341/679/343 340/678/342 423/762/425
f 423/762/425 424/763/426 341/679/343
f 342/680/344 341/679/343 424/763/426
f 424/763/426 425/764/427 342/680/344
f 343/681/345 342/680/344 425/764/427
f 425/764/427 426/765/428 344/682/346
f 344/682/346 343/681/345 425/764/427
f 426/765/428 427/766/429 345/683/347
f 345/683/347 344/682/346 426/765/428
f 427/766/429 428/767/430 346/684/348
f 346/684/348 345/683/347 427/766/429
f 428/767/430 429/768/431 347/685/349
f 347/685/349 346/684/348 428/767/430
f 429/768/431 430/769/432 348/686/350
f 348/686/350 347/685/349 429/768/431
f 431/770/433 349/687/351 430/769/432
f 348/686/350 430/769/432 349/687/351
f 432/771/434 350/688/352 431/770/433
f 349/687/351 431/770/433 350/688/352
f 432/771/434 433/772/435 350/688/352
f 351/689/353 350/688/352 433/772/435
f 433/772/435 434/773/436 351/689/353
f 352/690/354 351/689/353 434/773/436
f 434/773/436 435/774/437 353/691/355
f 353/691/355 352/690/354 434/773/436
f 435/774/437 436/775/438 354/692/356
f 354/692/356 353/691/355 435/774/437
f 436/775/438 437/776/439 355/693/357
f 355/693/357 354/692/356 436/775/438
f 437/776/439 438/777/440 356/694/358
f 356/694/358 355/693/357 437/776/439
f 438/777/440 439/778/441 357/695/359
f 357/695/359 356/694/358 438/777/440
f 439/778/441 440/779/442 358/696/360
f 358/696/360 357/695/359 439/778/441
f 440/779/442 441/780/443 359/697/361
f 359/697/361 358/696/360 440/779/442
f 441/780/443 442/781/444 359/697/361
f 360/698/362 359/697/361 442/781/444
f 442/781/444 443/782/445 360/698/362
f 361/699/363 360/698/362 443/782/445
f 444/783/446 362/700/364 443/782/445
f 361/699/363 443/782/445 362/700/364
f 445/784/447 363/701/365 444/783/446
f 362/700/364 444/783/446 363/701/365
f 445/784/447 446/785/448 364/702/366
f 364/702/366 363/701/365 445/784/447
f 446/785/448 447/786/449 365/703/367
f 365/703/367 364/702/366 446/785/448
f 447/786/449 448/787/450 366/704/368
f 366/704/368 365/703/367 447/786/449
f 448/787/450 449/788/451 367/705/369
f 367/705/369 366/704/368 448/787/450
f 449/788/451 450/789/452 368/706/370
f 368/706/370 367/705/369 449/788/451
f 450/789/452 451/790/453 368/706/370
f 369/707/371 368/706/370 451/790/453
f 451/790/453 452/791/454 369/707/371
f 370/708/372 369/707/371 452/791/454
f 452/791/454 453/792/455 370/708/372
f 371/709/373 370/708/372 453/792/455
f 453/792/455 454/793/456 372/710/374
f 372/710/374 371/709/373 453/792/455
f 454/793/456 455/794/457 372/710/374
f 373/711/375 372/710/374 455/794/457
f 455/794/457 456/795/458 374/712/376
f 374/712/376 373/711/375 455/794/457
f 456/795/458 457/796/459 375/713/377
f 375/713/377 374/712/376 456/795/458
f 457/796/459 458/797/460 376/714/378
f 376/714/378 375/713/377 457/796/459
f 458/797/460 459/798/461 376/714/378
f 377/715/379 376/714/378 459/798/461
f 459/798/461 460/799/462 378/716/380
f 378/716/380 377/715/379 459/798/461
f 460/799/462 461/800/463 379/717/381
f 379/717/381 378/716/380 460/799/462
f 461/800/463 462/801/464 379/717/381
f 380/718/382 379/717/381 462/801/464
f 462/801/464 463/802/465 381/719/383
f 381/719/383 380/718/382 462/801/464
f 463/802/465 464/803/466 381/719/383
f 382/720/384 381/719/383 464/803/466
f 464/803/466 465/804/467 382/720/384
f 383/721/385 382/720/384 465/804/467
f 465/804/467 466/805/468 383/721/385
f 384/722/386 383/721/385 466/805/468
f 466/805/468 467/806/469 385/723/387
f 385/723/387 384/722/386 466/805/468
f 467/806/469 468/807/470 386/724/388
f 386/724/388 385/723/387 467/806/469
f 468/807/470 469/808/471 387/725/389
f 387/725/389 386/724/388 468/807/470
f 469/808/471 470/809/472 388/726/390
f 388/726/390 387/725/389 469/808/471
f 470/809/472 471/810/473 389/727/391
f 389/727/391 388/726/390 470/809/472
f 472/811/474 390/728/392 471/810/473
f 389/727/391 471/810/473 390/728/392
f 473/812/475 391/729/393 472/811/474
f 390/728/392 472/811/474 391/729/393
f 473/812/475 474/813/476 391/729/393
f 392/730/394 391/729/393 474/813/476
f 474/813/476 475/814/477 392/730/394
f 393/731/395 392/730/394 475/814/477
f 475/814/477 476/815/478 394/732/396
f 394/732/396 393/731/395 475/814/477
f 476/815/478 477/816/479 395/733/397
f 395/733/397 394/732/396 476/815/478
f 477/816/479 478/817/480 396/734/398
f 396/734/398 395/733/397 477/816/479
f 478/817/480 479/818/481 397/735/399
f 397/735/399 396/734/398 478/817/480
f 479/818/481 480/819/482 398/736/400
f 398/736/400 397/735/399 479/818/481
f 480/819/482 481/820/483 399/737/401
f 399/737/401 398/736/400 480/819/482
f 481/820/483 482/821/484 400/738/402
f 400/738/402 399/737/401 481/820/483
f 482/821/484 483/822/485 400/738/402
f 401/739/403 400/738/402 483/822/485
f 483/822/485 484/823/486 401/739/403
f 402/740/404 401/739/403 484/823/486
f 485/824/487 403/741/405 484/823/486
f 402/740/404 484/823/486 403/741/405
f 486/825/488 404/742/406 485/824/487
f 403/741/405 485/824/487 404/742/406
f 486/825/488 487/826/489 405/743/407
f 405/743/407 404/742/406 486/825/488
f 487/826/489 488/827/490 406/744/408
f 406/744/408 405/743/407 487/826/489
f 488/827/490 489/828/491 407/745/409
f 407/745/409 406/744/408 488/827/490
f 489/828/491 490/829/492 408/746/410
f 408/746/410 407/745/409 489/828/491
f 490/829/492 491/830/493 409/747/411
f 409/747/411 408/746/410 490/829/492
f 491/830/493 492/831/494 409/747/411
f 410/748/412 409/747/411 492/831/494
f 492/831/494 493/832/495 410/748/412
f 411/749/413 410/748/412 493/832/495
f 493/832/495 494/833/496 411/749/413
f 412/750/414 411/749/413 494/833/496
f 494/833/496 495/834/497 413/751/415
f 413/751/415 412/750/414 494/833/496
f 495/834/497 496/835/498 413/751/415
f 414/752/416 413/751/415 496/835/498
f 496/835/498 497/836/499 415/753/417
f 415/753/417 414/752/416 496/835/498
f 497/836/499 498/837/500 416/754/418
f 416/754/418 415/753/417 497/836/499
f 498/837/500 417/838/419 416/754/418
f 335/755/337 416/754/418 417/838/419
