ISO-10303-21;
HEADER;
/* Generated by software containing ST-Developer
 * from STEP Tools, Inc. (www.steptools.com) 
 */

FILE_DESCRIPTION(
/* description */ (''),
/* implementation_level */ '2;1');

FILE_NAME(
/* name */ 'E:/ganagobie rocket lab/plan\X\E8te sciences/ogive.stp',
/* time_stamp */ '2026-06-27T21:41:45+02:00',
/* author */ (''),
/* organization */ (''),
/* preprocessor_version */ 'ST-DEVELOPER v15.2',
/* originating_system */ 'Autodesk Translator Framework v2.0.0.5431',
/* authorisation */ '');

FILE_SCHEMA (('AUTOMOTIVE_DESIGN { 1 0 10303 214 3 1 1 }'));
ENDSEC;

DATA;
#10=SHAPE_REPRESENTATION_RELATIONSHIP('SRR','None',#434,#11);
#11=ADVANCED_BREP_SHAPE_REPRESENTATION($,(#181),#428);
#12=STYLED_ITEM($,(#442),#181);
#13=PLANE($,#194);
#14=PLANE($,#198);
#15=PLANE($,#203);
#16=PLANE($,#208);
#17=(
BOUNDED_CURVE()
B_SPLINE_CURVE(2,(#307,#308,#309),.UNSPECIFIED.,.F.,.F.)
B_SPLINE_CURVE_WITH_KNOTS((3,3),(0.310327278301539,1.57079632679464),
 .UNSPECIFIED.)
CURVE()
GEOMETRIC_REPRESENTATION_ITEM()
RATIONAL_B_SPLINE_CURVE((1.,0.807889317361626,1.))
REPRESENTATION_ITEM($)
);
#18=(
BOUNDED_CURVE()
B_SPLINE_CURVE(2,(#341,#342,#343),.UNSPECIFIED.,.F.,.F.)
B_SPLINE_CURVE_WITH_KNOTS((3,3),(-0.310327278301682,0.0176758006506477),
 .UNSPECIFIED.)
CURVE()
GEOMETRIC_REPRESENTATION_ITEM()
RATIONAL_B_SPLINE_CURVE((1.,0.98658186309581,1.))
REPRESENTATION_ITEM($)
);
#19=(
BOUNDED_CURVE()
B_SPLINE_CURVE(2,(#389,#390,#391),.UNSPECIFIED.,.F.,.F.)
B_SPLINE_CURVE_WITH_KNOTS((3,3),(-1.57079632679484,-0.31032727830155),
 .UNSPECIFIED.)
CURVE()
GEOMETRIC_REPRESENTATION_ITEM()
RATIONAL_B_SPLINE_CURVE((1.,0.807889317361504,1.))
REPRESENTATION_ITEM($)
);
#20=(
BOUNDED_CURVE()
B_SPLINE_CURVE(2,(#424,#425,#426),.UNSPECIFIED.,.F.,.F.)
B_SPLINE_CURVE_WITH_KNOTS((3,3),(-0.0176383493113741,0.310327278301674),
 .UNSPECIFIED.)
CURVE()
GEOMETRIC_REPRESENTATION_ITEM()
RATIONAL_B_SPLINE_CURVE((1.,0.986584920213282,1.))
REPRESENTATION_ITEM($)
);
#21=(
BOUNDED_SURFACE()
B_SPLINE_SURFACE(2,2,((#275,#276,#277,#278,#279,#280,#281,#282,#283),(#284,
#285,#286,#287,#288,#289,#290,#291,#292),(#293,#294,#295,#296,#297,#298,
#299,#300,#301)),.UNSPECIFIED.,.F.,.T.,.F.)
B_SPLINE_SURFACE_WITH_KNOTS((3,3),(3,2,2,2,3),(-1.57079632679464,-0.310327278301539),
(-3.14159265358979,-1.5707963267949,0.,1.5707963267949,3.14159265358979),
 .UNSPECIFIED.)
GEOMETRIC_REPRESENTATION_ITEM()
RATIONAL_B_SPLINE_SURFACE(((1.,0.707106781186548,1.,0.707106781186548,1.,
0.707106781186548,1.,0.707106781186548,1.),(0.807889317361626,0.571264014754577,
0.807889317361626,0.571264014754577,0.807889317361626,0.571264014754577,
0.807889317361626,0.571264014754577,0.807889317361626),(1.,0.707106781186548,
1.,0.707106781186548,1.,0.707106781186548,1.,0.707106781186548,1.)))
REPRESENTATION_ITEM($)
SURFACE()
);
#22=(
BOUNDED_SURFACE()
B_SPLINE_SURFACE(2,2,((#314,#315,#316,#317,#318,#319,#320,#321,#322),(#323,
#324,#325,#326,#327,#328,#329,#330,#331),(#332,#333,#334,#335,#336,#337,
#338,#339,#340)),.UNSPECIFIED.,.F.,.T.,.F.)
B_SPLINE_SURFACE_WITH_KNOTS((3,3),(3,2,2,2,3),(-0.0176758006506477,0.310327278301682),
(-3.14159265358979,-1.5707963267949,0.,1.5707963267949,3.14159265358979),
 .UNSPECIFIED.)
GEOMETRIC_REPRESENTATION_ITEM()
RATIONAL_B_SPLINE_SURFACE(((1.,0.707106781186548,1.,0.707106781186548,1.,
0.707106781186548,1.,0.707106781186548,1.),(0.98658186309581,0.697618725590705,
0.98658186309581,0.697618725590705,0.98658186309581,0.697618725590705,0.98658186309581,
0.697618725590705,0.98658186309581),(1.,0.707106781186548,1.,0.707106781186548,
1.,0.707106781186548,1.,0.707106781186548,1.)))
REPRESENTATION_ITEM($)
SURFACE()
);
#23=(
BOUNDED_SURFACE()
B_SPLINE_SURFACE(2,2,((#358,#359,#360,#361,#362,#363,#364,#365,#366),(#367,
#368,#369,#370,#371,#372,#373,#374,#375),(#376,#377,#378,#379,#380,#381,
#382,#383,#384)),.UNSPECIFIED.,.F.,.T.,.F.)
B_SPLINE_SURFACE_WITH_KNOTS((3,3),(3,2,2,2,3),(-1.57079632679484,-0.31032727830155),
(-3.14159265358979,-1.5707963267949,0.,1.5707963267949,3.14159265358979),
 .UNSPECIFIED.)
GEOMETRIC_REPRESENTATION_ITEM()
RATIONAL_B_SPLINE_SURFACE(((1.,0.707106781186548,1.,0.707106781186548,1.,
0.707106781186548,1.,0.707106781186548,1.),(0.807889317361504,0.571264014754491,
0.807889317361504,0.571264014754491,0.807889317361504,0.571264014754491,
0.807889317361504,0.571264014754491,0.807889317361504),(1.,0.707106781186548,
1.,0.707106781186548,1.,0.707106781186548,1.,0.707106781186548,1.)))
REPRESENTATION_ITEM($)
SURFACE()
);
#24=(
BOUNDED_SURFACE()
B_SPLINE_SURFACE(2,2,((#397,#398,#399,#400,#401,#402,#403,#404,#405),(#406,
#407,#408,#409,#410,#411,#412,#413,#414),(#415,#416,#417,#418,#419,#420,
#421,#422,#423)),.UNSPECIFIED.,.F.,.T.,.F.)
B_SPLINE_SURFACE_WITH_KNOTS((3,3),(3,2,2,2,3),(-0.0176383493113741,0.310327278301674),
(-3.14159265358979,-1.5707963267949,0.,1.5707963267949,3.14159265358979),
 .UNSPECIFIED.)
GEOMETRIC_REPRESENTATION_ITEM()
RATIONAL_B_SPLINE_SURFACE(((1.,0.707106781186548,1.,0.707106781186548,1.,
0.707106781186548,1.,0.707106781186548,1.),(0.986584920213282,0.697620887299201,
0.986584920213282,0.697620887299201,0.986584920213282,0.697620887299201,
0.986584920213282,0.697620887299201,0.986584920213282),(1.,0.707106781186548,
1.,0.707106781186548,1.,0.707106781186548,1.,0.707106781186548,1.)))
REPRESENTATION_ITEM($)
SURFACE()
);
#25=CYLINDRICAL_SURFACE($,#186,3.21);
#26=CYLINDRICAL_SURFACE($,#188,3.01);
#27=CYLINDRICAL_SURFACE($,#195,3.22);
#28=CYLINDRICAL_SURFACE($,#199,3.45);
#29=FACE_BOUND($,#50,.T.);
#30=FACE_BOUND($,#52,.T.);
#31=FACE_BOUND($,#54,.T.);
#32=FACE_BOUND($,#59,.T.);
#33=FACE_BOUND($,#61,.T.);
#34=FACE_BOUND($,#63,.T.);
#35=FACE_BOUND($,#65,.T.);
#36=FACE_OUTER_BOUND($,#49,.T.);
#37=FACE_OUTER_BOUND($,#51,.T.);
#38=FACE_OUTER_BOUND($,#53,.T.);
#39=FACE_OUTER_BOUND($,#55,.T.);
#40=FACE_OUTER_BOUND($,#56,.T.);
#41=FACE_OUTER_BOUND($,#57,.T.);
#42=FACE_OUTER_BOUND($,#58,.T.);
#43=FACE_OUTER_BOUND($,#60,.T.);
#44=FACE_OUTER_BOUND($,#62,.T.);
#45=FACE_OUTER_BOUND($,#64,.T.);
#46=FACE_OUTER_BOUND($,#66,.T.);
#47=FACE_OUTER_BOUND($,#67,.T.);
#48=FACE_OUTER_BOUND($,#68,.T.);
#49=EDGE_LOOP($,(#124));
#50=EDGE_LOOP($,(#125));
#51=EDGE_LOOP($,(#126));
#52=EDGE_LOOP($,(#127));
#53=EDGE_LOOP($,(#128));
#54=EDGE_LOOP($,(#129));
#55=EDGE_LOOP($,(#130,#131,#132,#133,#134,#135));
#56=EDGE_LOOP($,(#136,#137));
#57=EDGE_LOOP($,(#138,#139,#140,#141,#142));
#58=EDGE_LOOP($,(#143));
#59=EDGE_LOOP($,(#144));
#60=EDGE_LOOP($,(#145));
#61=EDGE_LOOP($,(#146));
#62=EDGE_LOOP($,(#147));
#63=EDGE_LOOP($,(#148,#149));
#64=EDGE_LOOP($,(#150));
#65=EDGE_LOOP($,(#151));
#66=EDGE_LOOP($,(#152,#153,#154,#155,#156,#157));
#67=EDGE_LOOP($,(#158,#159));
#68=EDGE_LOOP($,(#160,#161,#162,#163,#164,#165));
#69=CIRCLE($,#184,3.01);
#70=CIRCLE($,#185,3.21);
#71=CIRCLE($,#187,3.21);
#72=CIRCLE($,#189,3.01);
#73=CIRCLE($,#190,0.522048200838977);
#74=CIRCLE($,#191,0.522048200838977);
#75=CIRCLE($,#192,0.0840207081253084);
#76=CIRCLE($,#193,0.0840207081253084);
#77=CIRCLE($,#196,3.22);
#78=CIRCLE($,#197,3.22);
#79=CIRCLE($,#200,3.45);
#80=CIRCLE($,#201,3.45);
#81=CIRCLE($,#202,3.45);
#82=CIRCLE($,#204,0.0840207081253084);
#83=CIRCLE($,#205,0.750584283993931);
#84=CIRCLE($,#206,0.750584283993931);
#85=CIRCLE($,#207,0.0840207081253084);
#86=VERTEX_POINT($,#265);
#87=VERTEX_POINT($,#267);
#88=VERTEX_POINT($,#270);
#89=VERTEX_POINT($,#273);
#90=VERTEX_POINT($,#302);
#91=VERTEX_POINT($,#303);
#92=VERTEX_POINT($,#306);
#93=VERTEX_POINT($,#310);
#94=VERTEX_POINT($,#345);
#95=VERTEX_POINT($,#347);
#96=VERTEX_POINT($,#351);
#97=VERTEX_POINT($,#353);
#98=VERTEX_POINT($,#354);
#99=VERTEX_POINT($,#385);
#100=VERTEX_POINT($,#386);
#101=VERTEX_POINT($,#388);
#102=VERTEX_POINT($,#392);
#103=EDGE_CURVE($,#86,#86,#69,.F.);
#104=EDGE_CURVE($,#87,#87,#70,.T.);
#105=EDGE_CURVE($,#88,#88,#71,.T.);
#106=EDGE_CURVE($,#89,#89,#72,.T.);
#107=EDGE_CURVE($,#90,#91,#73,.T.);
#108=EDGE_CURVE($,#91,#90,#74,.T.);
#109=EDGE_CURVE($,#91,#92,#17,.T.);
#110=EDGE_CURVE($,#93,#92,#75,.T.);
#111=EDGE_CURVE($,#92,#93,#76,.T.);
#112=EDGE_CURVE($,#90,#88,#18,.T.);
#113=EDGE_CURVE($,#94,#94,#77,.F.);
#114=EDGE_CURVE($,#95,#95,#78,.T.);
#115=EDGE_CURVE($,#96,#96,#79,.T.);
#116=EDGE_CURVE($,#97,#98,#80,.T.);
#117=EDGE_CURVE($,#98,#97,#81,.T.);
#118=EDGE_CURVE($,#99,#100,#82,.T.);
#119=EDGE_CURVE($,#100,#101,#19,.T.);
#120=EDGE_CURVE($,#101,#102,#83,.T.);
#121=EDGE_CURVE($,#102,#101,#84,.T.);
#122=EDGE_CURVE($,#100,#99,#85,.T.);
#123=EDGE_CURVE($,#98,#102,#20,.T.);
#124=ORIENTED_EDGE($,*,*,#103,.F.);
#125=ORIENTED_EDGE($,*,*,#104,.T.);
#126=ORIENTED_EDGE($,*,*,#105,.T.);
#127=ORIENTED_EDGE($,*,*,#104,.F.);
#128=ORIENTED_EDGE($,*,*,#106,.F.);
#129=ORIENTED_EDGE($,*,*,#103,.T.);
#130=ORIENTED_EDGE($,*,*,#107,.F.);
#131=ORIENTED_EDGE($,*,*,#108,.F.);
#132=ORIENTED_EDGE($,*,*,#109,.T.);
#133=ORIENTED_EDGE($,*,*,#110,.F.);
#134=ORIENTED_EDGE($,*,*,#111,.F.);
#135=ORIENTED_EDGE($,*,*,#109,.F.);
#136=ORIENTED_EDGE($,*,*,#110,.T.);
#137=ORIENTED_EDGE($,*,*,#111,.T.);
#138=ORIENTED_EDGE($,*,*,#107,.T.);
#139=ORIENTED_EDGE($,*,*,#108,.T.);
#140=ORIENTED_EDGE($,*,*,#112,.T.);
#141=ORIENTED_EDGE($,*,*,#105,.F.);
#142=ORIENTED_EDGE($,*,*,#112,.F.);
#143=ORIENTED_EDGE($,*,*,#113,.F.);
#144=ORIENTED_EDGE($,*,*,#114,.F.);
#145=ORIENTED_EDGE($,*,*,#113,.T.);
#146=ORIENTED_EDGE($,*,*,#106,.T.);
#147=ORIENTED_EDGE($,*,*,#115,.F.);
#148=ORIENTED_EDGE($,*,*,#116,.F.);
#149=ORIENTED_EDGE($,*,*,#117,.F.);
#150=ORIENTED_EDGE($,*,*,#115,.T.);
#151=ORIENTED_EDGE($,*,*,#114,.T.);
#152=ORIENTED_EDGE($,*,*,#118,.T.);
#153=ORIENTED_EDGE($,*,*,#119,.T.);
#154=ORIENTED_EDGE($,*,*,#120,.T.);
#155=ORIENTED_EDGE($,*,*,#121,.T.);
#156=ORIENTED_EDGE($,*,*,#119,.F.);
#157=ORIENTED_EDGE($,*,*,#122,.T.);
#158=ORIENTED_EDGE($,*,*,#118,.F.);
#159=ORIENTED_EDGE($,*,*,#122,.F.);
#160=ORIENTED_EDGE($,*,*,#116,.T.);
#161=ORIENTED_EDGE($,*,*,#123,.T.);
#162=ORIENTED_EDGE($,*,*,#120,.F.);
#163=ORIENTED_EDGE($,*,*,#121,.F.);
#164=ORIENTED_EDGE($,*,*,#123,.F.);
#165=ORIENTED_EDGE($,*,*,#117,.T.);
#166=CONICAL_SURFACE($,#183,3.11,0.785398163397448);
#167=ADVANCED_FACE($,(#36,#29),#166,.F.);
#168=ADVANCED_FACE($,(#37,#30),#25,.F.);
#169=ADVANCED_FACE($,(#38,#31),#26,.F.);
#170=ADVANCED_FACE($,(#39),#21,.T.);
#171=ADVANCED_FACE($,(#40),#13,.F.);
#172=ADVANCED_FACE($,(#41),#22,.T.);
#173=ADVANCED_FACE($,(#42,#32),#27,.T.);
#174=ADVANCED_FACE($,(#43,#33),#14,.T.);
#175=ADVANCED_FACE($,(#44,#34),#28,.T.);
#176=ADVANCED_FACE($,(#45,#35),#15,.T.);
#177=ADVANCED_FACE($,(#46),#23,.F.);
#178=ADVANCED_FACE($,(#47),#16,.T.);
#179=ADVANCED_FACE($,(#48),#24,.F.);
#180=CLOSED_SHELL($,(#167,#168,#169,#170,#171,#172,#173,#174,#175,#176,
#177,#178,#179));
#181=MANIFOLD_SOLID_BREP('ASM Body',#180);
#182=AXIS2_PLACEMENT_3D('placement',#263,#209,#210);
#183=AXIS2_PLACEMENT_3D($,#264,#211,#212);
#184=AXIS2_PLACEMENT_3D($,#266,#213,#214);
#185=AXIS2_PLACEMENT_3D($,#268,#215,#216);
#186=AXIS2_PLACEMENT_3D($,#269,#217,#218);
#187=AXIS2_PLACEMENT_3D($,#271,#219,#220);
#188=AXIS2_PLACEMENT_3D($,#272,#221,#222);
#189=AXIS2_PLACEMENT_3D($,#274,#223,#224);
#190=AXIS2_PLACEMENT_3D($,#304,#225,#226);
#191=AXIS2_PLACEMENT_3D($,#305,#227,#228);
#192=AXIS2_PLACEMENT_3D($,#311,#229,#230);
#193=AXIS2_PLACEMENT_3D($,#312,#231,#232);
#194=AXIS2_PLACEMENT_3D($,#313,#233,#234);
#195=AXIS2_PLACEMENT_3D($,#344,#235,#236);
#196=AXIS2_PLACEMENT_3D($,#346,#237,#238);
#197=AXIS2_PLACEMENT_3D($,#348,#239,#240);
#198=AXIS2_PLACEMENT_3D($,#349,#241,#242);
#199=AXIS2_PLACEMENT_3D($,#350,#243,#244);
#200=AXIS2_PLACEMENT_3D($,#352,#245,#246);
#201=AXIS2_PLACEMENT_3D($,#355,#247,#248);
#202=AXIS2_PLACEMENT_3D($,#356,#249,#250);
#203=AXIS2_PLACEMENT_3D($,#357,#251,#252);
#204=AXIS2_PLACEMENT_3D($,#387,#253,#254);
#205=AXIS2_PLACEMENT_3D($,#393,#255,#256);
#206=AXIS2_PLACEMENT_3D($,#394,#257,#258);
#207=AXIS2_PLACEMENT_3D($,#395,#259,#260);
#208=AXIS2_PLACEMENT_3D($,#396,#261,#262);
#209=DIRECTION('axis',(0.,0.,1.));
#210=DIRECTION('refdir',(1.,0.,0.));
#211=DIRECTION('center_axis',(0.,0.,1.));
#212=DIRECTION('ref_axis',(1.,0.,0.));
#213=DIRECTION('center_axis',(0.,0.,-1.));
#214=DIRECTION('ref_axis',(1.,0.,0.));
#215=DIRECTION('center_axis',(0.,0.,1.));
#216=DIRECTION('ref_axis',(1.,0.,0.));
#217=DIRECTION('center_axis',(0.,0.,1.));
#218=DIRECTION('ref_axis',(1.,0.,0.));
#219=DIRECTION('center_axis',(0.,0.,1.));
#220=DIRECTION('ref_axis',(1.,0.,0.));
#221=DIRECTION('center_axis',(0.,0.,1.));
#222=DIRECTION('ref_axis',(1.,0.,0.));
#223=DIRECTION('center_axis',(0.,0.,1.));
#224=DIRECTION('ref_axis',(1.,0.,0.));
#225=DIRECTION('center_axis',(0.,0.,1.));
#226=DIRECTION('ref_axis',(1.,0.,0.));
#227=DIRECTION('center_axis',(0.,0.,1.));
#228=DIRECTION('ref_axis',(1.,0.,0.));
#229=DIRECTION('center_axis',(0.,0.,-1.));
#230=DIRECTION('ref_axis',(1.,0.,0.));
#231=DIRECTION('center_axis',(0.,0.,-1.));
#232=DIRECTION('ref_axis',(1.,0.,0.));
#233=DIRECTION('center_axis',(0.,0.,1.));
#234=DIRECTION('ref_axis',(1.,0.,0.));
#235=DIRECTION('center_axis',(0.,0.,1.));
#236=DIRECTION('ref_axis',(1.,0.,0.));
#237=DIRECTION('center_axis',(0.,0.,1.));
#238=DIRECTION('ref_axis',(1.,0.,0.));
#239=DIRECTION('center_axis',(0.,0.,1.));
#240=DIRECTION('ref_axis',(1.,0.,0.));
#241=DIRECTION('center_axis',(0.,0.,-1.));
#242=DIRECTION('ref_axis',(-1.,0.,0.));
#243=DIRECTION('center_axis',(0.,0.,1.));
#244=DIRECTION('ref_axis',(1.,0.,0.));
#245=DIRECTION('center_axis',(0.,0.,-1.));
#246=DIRECTION('ref_axis',(1.,0.,0.));
#247=DIRECTION('center_axis',(0.,0.,1.));
#248=DIRECTION('ref_axis',(1.,0.,0.));
#249=DIRECTION('center_axis',(0.,0.,1.));
#250=DIRECTION('ref_axis',(1.,0.,0.));
#251=DIRECTION('center_axis',(0.,0.,-1.));
#252=DIRECTION('ref_axis',(-1.,0.,0.));
#253=DIRECTION('center_axis',(0.,0.,-1.));
#254=DIRECTION('ref_axis',(1.,0.,0.));
#255=DIRECTION('center_axis',(0.,0.,1.));
#256=DIRECTION('ref_axis',(1.,0.,0.));
#257=DIRECTION('center_axis',(0.,0.,1.));
#258=DIRECTION('ref_axis',(1.,0.,0.));
#259=DIRECTION('center_axis',(0.,0.,-1.));
#260=DIRECTION('ref_axis',(1.,0.,0.));
#261=DIRECTION('center_axis',(0.,0.,1.));
#262=DIRECTION('ref_axis',(1.,0.,0.));
#263=CARTESIAN_POINT('',(0.,0.,0.));
#264=CARTESIAN_POINT('Origin',(-6.31807998063334,18.8675791521134,7.04));
#265=CARTESIAN_POINT('',(-9.32807998063334,18.8675791521134,6.94));
#266=CARTESIAN_POINT('Origin',(-6.31807998063334,18.8675791521134,6.94));
#267=CARTESIAN_POINT('',(-9.52807998063334,18.8675791521134,7.14));
#268=CARTESIAN_POINT('Origin',(-6.31807998063334,18.8675791521134,7.14));
#269=CARTESIAN_POINT('Origin',(-6.31807998063334,18.8675791521134,11.));
#270=CARTESIAN_POINT('',(-9.52807998063334,18.8675791521134,15.5021189016726));
#271=CARTESIAN_POINT('Origin',(-6.31807998063334,18.8675791521134,15.5021189016726));
#272=CARTESIAN_POINT('Origin',(-6.31807998063334,18.8675791521134,3.25));
#273=CARTESIAN_POINT('',(-9.32807998063334,18.8675791521134,0.));
#274=CARTESIAN_POINT('Origin',(-6.31807998063334,18.8675791521134,0.));
#275=CARTESIAN_POINT('Ctrl Pts',(-6.23405927250786,18.8675791521134,34.06));
#276=CARTESIAN_POINT('Ctrl Pts',(-6.23405927250786,18.783558443988,34.06));
#277=CARTESIAN_POINT('Ctrl Pts',(-6.31807998063326,18.783558443988,34.06));
#278=CARTESIAN_POINT('Ctrl Pts',(-6.40210068875865,18.783558443988,34.06));
#279=CARTESIAN_POINT('Ctrl Pts',(-6.40210068875865,18.8675791521134,34.06));
#280=CARTESIAN_POINT('Ctrl Pts',(-6.40210068875865,18.9515998602388,34.06));
#281=CARTESIAN_POINT('Ctrl Pts',(-6.31807998063326,18.9515998602388,34.06));
#282=CARTESIAN_POINT('Ctrl Pts',(-6.23405927250786,18.9515998602388,34.06));
#283=CARTESIAN_POINT('Ctrl Pts',(-6.23405927250786,18.8675791521134,34.06));
#284=CARTESIAN_POINT('Ctrl Pts',(-5.89850123712664,18.8675791521134,34.0599999999999));
#285=CARTESIAN_POINT('Ctrl Pts',(-5.89850123712664,18.4480004086068,34.0599999999999));
#286=CARTESIAN_POINT('Ctrl Pts',(-6.31807998063326,18.4480004086068,34.0599999999999));
#287=CARTESIAN_POINT('Ctrl Pts',(-6.73765872413988,18.4480004086068,34.0599999999999));
#288=CARTESIAN_POINT('Ctrl Pts',(-6.73765872413988,18.8675791521134,34.0599999999999));
#289=CARTESIAN_POINT('Ctrl Pts',(-6.73765872413988,19.28715789562,34.0599999999999));
#290=CARTESIAN_POINT('Ctrl Pts',(-6.31807998063326,19.28715789562,34.0599999999999));
#291=CARTESIAN_POINT('Ctrl Pts',(-5.89850123712664,19.28715789562,34.0599999999999));
#292=CARTESIAN_POINT('Ctrl Pts',(-5.89850123712664,18.8675791521134,34.0599999999999));
#293=CARTESIAN_POINT('Ctrl Pts',(-5.79603177979433,18.8675791521134,33.7404703371782));
#294=CARTESIAN_POINT('Ctrl Pts',(-5.79603177979433,18.3455309512745,33.7404703371782));
#295=CARTESIAN_POINT('Ctrl Pts',(-6.31807998063327,18.3455309512745,33.7404703371782));
#296=CARTESIAN_POINT('Ctrl Pts',(-6.8401281814722,18.3455309512745,33.7404703371782));
#297=CARTESIAN_POINT('Ctrl Pts',(-6.8401281814722,18.8675791521134,33.7404703371783));
#298=CARTESIAN_POINT('Ctrl Pts',(-6.8401281814722,19.3896273529524,33.7404703371783));
#299=CARTESIAN_POINT('Ctrl Pts',(-6.31807998063327,19.3896273529524,33.7404703371783));
#300=CARTESIAN_POINT('Ctrl Pts',(-5.79603177979433,19.3896273529524,33.7404703371783));
#301=CARTESIAN_POINT('Ctrl Pts',(-5.79603177979433,18.8675791521134,33.7404703371782));
#302=CARTESIAN_POINT('',(-6.84012818147232,18.8675791521134,33.7404703371783));
#303=CARTESIAN_POINT('',(-5.79603177979433,18.8675791521134,33.7404703371782));
#304=CARTESIAN_POINT('Origin',(-6.31807998063334,18.8675791521134,33.7404703371783));
#305=CARTESIAN_POINT('Origin',(-6.31807998063334,18.8675791521134,33.7404703371783));
#306=CARTESIAN_POINT('',(-6.23405927250786,18.8675791521134,34.06));
#307=CARTESIAN_POINT('Ctrl Pts',(-5.79603177979433,18.8675791521134,33.7404703371782));
#308=CARTESIAN_POINT('Ctrl Pts',(-5.89850123712664,18.8675791521134,34.0599999999999));
#309=CARTESIAN_POINT('Ctrl Pts',(-6.23405927250786,18.8675791521134,34.06));
#310=CARTESIAN_POINT('',(-6.40210068875865,18.8675791521134,34.06));
#311=CARTESIAN_POINT('Origin',(-6.31807998063334,18.8675791521134,34.06));
#312=CARTESIAN_POINT('Origin',(-6.31807998063334,18.8675791521134,34.06));
#313=CARTESIAN_POINT('Origin',(-6.31807998063334,18.9175791521134,34.06));
#314=CARTESIAN_POINT('Ctrl Pts',(-9.52807998063338,18.8675791521135,15.5021189016726));
#315=CARTESIAN_POINT('Ctrl Pts',(-9.52807998063338,15.6575791521134,15.5021189016726));
#316=CARTESIAN_POINT('Ctrl Pts',(-6.31807998063335,15.6575791521134,15.5021189016726));
#317=CARTESIAN_POINT('Ctrl Pts',(-3.10807998063332,15.6575791521134,15.5021189016726));
#318=CARTESIAN_POINT('Ctrl Pts',(-3.10807998063332,18.8675791521135,15.5021189016726));
#319=CARTESIAN_POINT('Ctrl Pts',(-3.10807998063332,22.0775791521135,15.5021189016726));
#320=CARTESIAN_POINT('Ctrl Pts',(-6.31807998063335,22.0775791521135,15.5021189016726));
#321=CARTESIAN_POINT('Ctrl Pts',(-9.52807998063338,22.0775791521135,15.5021189016726));
#322=CARTESIAN_POINT('Ctrl Pts',(-9.52807998063338,18.8675791521135,15.5021189016726));
#323=CARTESIAN_POINT('Ctrl Pts',(-9.69321721670789,18.8675791521135,24.8437063534282));
#324=CARTESIAN_POINT('Ctrl Pts',(-9.69321721670789,15.4924419160389,24.8437063534282));
#325=CARTESIAN_POINT('Ctrl Pts',(-6.31807998063334,15.4924419160389,24.8437063534282));
#326=CARTESIAN_POINT('Ctrl Pts',(-2.94294274455879,15.4924419160389,24.8437063534282));
#327=CARTESIAN_POINT('Ctrl Pts',(-2.94294274455879,18.8675791521135,24.8437063534282));
#328=CARTESIAN_POINT('Ctrl Pts',(-2.94294274455879,22.242716388188,24.8437063534282));
#329=CARTESIAN_POINT('Ctrl Pts',(-6.31807998063334,22.242716388188,24.8437063534282));
#330=CARTESIAN_POINT('Ctrl Pts',(-9.69321721670789,22.242716388188,24.8437063534282));
#331=CARTESIAN_POINT('Ctrl Pts',(-9.69321721670789,18.8675791521135,24.8437063534282));
#332=CARTESIAN_POINT('Ctrl Pts',(-6.84012818147228,18.8675791521135,33.7404703371783));
#333=CARTESIAN_POINT('Ctrl Pts',(-6.84012818147228,18.3455309512745,33.7404703371783));
#334=CARTESIAN_POINT('Ctrl Pts',(-6.31807998063334,18.3455309512745,33.7404703371783));
#335=CARTESIAN_POINT('Ctrl Pts',(-5.7960317797944,18.3455309512745,33.7404703371783));
#336=CARTESIAN_POINT('Ctrl Pts',(-5.7960317797944,18.8675791521135,33.7404703371783));
#337=CARTESIAN_POINT('Ctrl Pts',(-5.7960317797944,19.3896273529524,33.7404703371783));
#338=CARTESIAN_POINT('Ctrl Pts',(-6.31807998063334,19.3896273529524,33.7404703371783));
#339=CARTESIAN_POINT('Ctrl Pts',(-6.84012818147228,19.3896273529524,33.7404703371783));
#340=CARTESIAN_POINT('Ctrl Pts',(-6.84012818147228,18.8675791521135,33.7404703371783));
#341=CARTESIAN_POINT('Ctrl Pts',(-6.84012818147228,18.8675791521135,33.7404703371783));
#342=CARTESIAN_POINT('Ctrl Pts',(-9.69321721670789,18.8675791521135,24.8437063534282));
#343=CARTESIAN_POINT('Ctrl Pts',(-9.52807998063338,18.8675791521135,15.5021189016726));
#344=CARTESIAN_POINT('Origin',(-6.31807998063334,18.8675791521134,3.25));
#345=CARTESIAN_POINT('',(-9.53807998063334,18.8675791521134,0.));
#346=CARTESIAN_POINT('Origin',(-6.31807998063334,18.8675791521134,0.));
#347=CARTESIAN_POINT('',(-9.53807998063334,18.8675791521134,6.5));
#348=CARTESIAN_POINT('Origin',(-6.31807998063334,18.8675791521134,6.5));
#349=CARTESIAN_POINT('Origin',(-6.31807998063334,18.8675791521134,0.));
#350=CARTESIAN_POINT('Origin',(-6.31807998063334,18.8675791521134,11.));
#351=CARTESIAN_POINT('',(-2.86807998063334,18.8675791521134,6.5));
#352=CARTESIAN_POINT('Origin',(-6.31807998063334,18.8675791521134,6.5));
#353=CARTESIAN_POINT('',(-6.31807998063334,15.4175791521134,15.5));
#354=CARTESIAN_POINT('',(-9.76807998063322,18.8675791521134,15.5));
#355=CARTESIAN_POINT('Origin',(-6.31807998063334,18.8675791521134,15.5));
#356=CARTESIAN_POINT('Origin',(-6.31807998063334,18.8675791521134,15.5));
#357=CARTESIAN_POINT('Origin',(-6.31807998063334,18.8675791521134,6.5));
#358=CARTESIAN_POINT('Ctrl Pts',(-6.23405927250787,18.8675791521134,34.3));
#359=CARTESIAN_POINT('Ctrl Pts',(-6.23405927250787,18.7835584439881,34.3));
#360=CARTESIAN_POINT('Ctrl Pts',(-6.31807998063326,18.7835584439881,34.3));
#361=CARTESIAN_POINT('Ctrl Pts',(-6.40210068875865,18.7835584439881,34.3));
#362=CARTESIAN_POINT('Ctrl Pts',(-6.40210068875865,18.8675791521134,34.3));
#363=CARTESIAN_POINT('Ctrl Pts',(-6.40210068875865,18.9515998602388,34.3));
#364=CARTESIAN_POINT('Ctrl Pts',(-6.31807998063326,18.9515998602388,34.3));
#365=CARTESIAN_POINT('Ctrl Pts',(-6.23405927250787,18.9515998602388,34.3));
#366=CARTESIAN_POINT('Ctrl Pts',(-6.23405927250787,18.8675791521134,34.3));
#367=CARTESIAN_POINT('Ctrl Pts',(-5.72342747953632,18.8675791521134,34.2999999999999));
#368=CARTESIAN_POINT('Ctrl Pts',(-5.72342747953632,18.2729266510165,34.2999999999999));
#369=CARTESIAN_POINT('Ctrl Pts',(-6.31807998063326,18.2729266510165,34.3));
#370=CARTESIAN_POINT('Ctrl Pts',(-6.9127324817302,18.2729266510165,34.3000000000001));
#371=CARTESIAN_POINT('Ctrl Pts',(-6.9127324817302,18.8675791521134,34.3000000000001));
#372=CARTESIAN_POINT('Ctrl Pts',(-6.9127324817302,19.4622316532104,34.3000000000001));
#373=CARTESIAN_POINT('Ctrl Pts',(-6.31807998063326,19.4622316532104,34.3));
#374=CARTESIAN_POINT('Ctrl Pts',(-5.72342747953632,19.4622316532104,34.2999999999999));
#375=CARTESIAN_POINT('Ctrl Pts',(-5.72342747953632,18.8675791521134,34.2999999999999));
#376=CARTESIAN_POINT('Ctrl Pts',(-5.56749569663935,18.8675791521134,33.8137592087494));
#377=CARTESIAN_POINT('Ctrl Pts',(-5.56749569663935,18.1169948681195,33.8137592087494));
#378=CARTESIAN_POINT('Ctrl Pts',(-6.31807998063334,18.1169948681195,33.8137592087495));
#379=CARTESIAN_POINT('Ctrl Pts',(-7.06866426462732,18.1169948681195,33.8137592087496));
#380=CARTESIAN_POINT('Ctrl Pts',(-7.06866426462732,18.8675791521134,33.8137592087496));
#381=CARTESIAN_POINT('Ctrl Pts',(-7.06866426462732,19.6181634361074,33.8137592087496));
#382=CARTESIAN_POINT('Ctrl Pts',(-6.31807998063334,19.6181634361074,33.8137592087495));
#383=CARTESIAN_POINT('Ctrl Pts',(-5.56749569663935,19.6181634361074,33.8137592087494));
#384=CARTESIAN_POINT('Ctrl Pts',(-5.56749569663935,18.8675791521134,33.8137592087494));
#385=CARTESIAN_POINT('',(-6.40210068875865,18.8675791521134,34.3));
#386=CARTESIAN_POINT('',(-6.23405927250787,18.8675791521134,34.3));
#387=CARTESIAN_POINT('Origin',(-6.31807998063334,18.8675791521134,34.3));
#388=CARTESIAN_POINT('',(-5.56749569663935,18.8675791521134,33.8137592087494));
#389=CARTESIAN_POINT('Ctrl Pts',(-6.23405927250787,18.8675791521134,34.3));
#390=CARTESIAN_POINT('Ctrl Pts',(-5.72342747953632,18.8675791521134,34.2999999999999));
#391=CARTESIAN_POINT('Ctrl Pts',(-5.56749569663935,18.8675791521134,33.8137592087494));
#392=CARTESIAN_POINT('',(-7.06866426462727,18.8675791521134,33.8137592087496));
#393=CARTESIAN_POINT('Origin',(-6.31807998063334,18.8675791521134,33.8137592087496));
#394=CARTESIAN_POINT('Origin',(-6.31807998063334,18.8675791521134,33.8137592087496));
#395=CARTESIAN_POINT('Origin',(-6.31807998063334,18.8675791521134,34.3));
#396=CARTESIAN_POINT('Origin',(-6.31807998063334,18.9175791521134,34.3));
#397=CARTESIAN_POINT('Ctrl Pts',(-9.76807998063322,18.8675791521134,15.5));
#398=CARTESIAN_POINT('Ctrl Pts',(-9.76807998063322,15.4175791521136,15.5));
#399=CARTESIAN_POINT('Ctrl Pts',(-6.31807998063336,15.4175791521136,15.5));
#400=CARTESIAN_POINT('Ctrl Pts',(-2.86807998063349,15.4175791521136,15.5));
#401=CARTESIAN_POINT('Ctrl Pts',(-2.86807998063349,18.8675791521134,15.5));
#402=CARTESIAN_POINT('Ctrl Pts',(-2.86807998063349,22.3175791521133,15.5));
#403=CARTESIAN_POINT('Ctrl Pts',(-6.31807998063336,22.3175791521133,15.5));
#404=CARTESIAN_POINT('Ctrl Pts',(-9.76807998063322,22.3175791521133,15.5));
#405=CARTESIAN_POINT('Ctrl Pts',(-9.76807998063322,18.8675791521134,15.5));
#406=CARTESIAN_POINT('Ctrl Pts',(-9.93354863083608,18.8675791521135,24.8802139418067));
#407=CARTESIAN_POINT('Ctrl Pts',(-9.93354863083608,15.2521105019107,24.8802139418067));
#408=CARTESIAN_POINT('Ctrl Pts',(-6.31807998063333,15.2521105019107,24.8802139418067));
#409=CARTESIAN_POINT('Ctrl Pts',(-2.70261133043058,15.2521105019107,24.8802139418067));
#410=CARTESIAN_POINT('Ctrl Pts',(-2.70261133043058,18.8675791521135,24.8802139418067));
#411=CARTESIAN_POINT('Ctrl Pts',(-2.70261133043058,22.4830478023162,24.8802139418067));
#412=CARTESIAN_POINT('Ctrl Pts',(-6.31807998063333,22.4830478023162,24.8802139418067));
#413=CARTESIAN_POINT('Ctrl Pts',(-9.93354863083608,22.4830478023162,24.8802139418067));
#414=CARTESIAN_POINT('Ctrl Pts',(-9.93354863083608,18.8675791521135,24.8802139418067));
#415=CARTESIAN_POINT('Ctrl Pts',(-7.06866426462727,18.8675791521135,33.8137592087496));
#416=CARTESIAN_POINT('Ctrl Pts',(-7.06866426462727,18.1169948681195,33.8137592087496));
#417=CARTESIAN_POINT('Ctrl Pts',(-6.3180799806333,18.1169948681195,33.8137592087496));
#418=CARTESIAN_POINT('Ctrl Pts',(-5.56749569663933,18.1169948681195,33.8137592087496));
#419=CARTESIAN_POINT('Ctrl Pts',(-5.56749569663933,18.8675791521135,33.8137592087496));
#420=CARTESIAN_POINT('Ctrl Pts',(-5.56749569663933,19.6181634361074,33.8137592087496));
#421=CARTESIAN_POINT('Ctrl Pts',(-6.3180799806333,19.6181634361074,33.8137592087496));
#422=CARTESIAN_POINT('Ctrl Pts',(-7.06866426462727,19.6181634361074,33.8137592087496));
#423=CARTESIAN_POINT('Ctrl Pts',(-7.06866426462727,18.8675791521135,33.8137592087496));
#424=CARTESIAN_POINT('Ctrl Pts',(-9.76807998063322,18.8675791521134,15.5));
#425=CARTESIAN_POINT('Ctrl Pts',(-9.93354863083608,18.8675791521135,24.8802139418067));
#426=CARTESIAN_POINT('Ctrl Pts',(-7.06866426462727,18.8675791521135,33.8137592087496));
#427=UNCERTAINTY_MEASURE_WITH_UNIT(LENGTH_MEASURE(0.001),#429,
'DISTANCE_ACCURACY_VALUE',
'Maximum model space distance between geometric entities at asserted c
onnectivities');
#428=(
GEOMETRIC_REPRESENTATION_CONTEXT(3)
GLOBAL_UNCERTAINTY_ASSIGNED_CONTEXT((#427))
GLOBAL_UNIT_ASSIGNED_CONTEXT((#429,#431,#430))
REPRESENTATION_CONTEXT('','3D')
);
#429=(
LENGTH_UNIT()
NAMED_UNIT(*)
SI_UNIT(.CENTI.,.METRE.)
);
#430=(
NAMED_UNIT(*)
SI_UNIT($,.STERADIAN.)
SOLID_ANGLE_UNIT()
);
#431=(
NAMED_UNIT(*)
PLANE_ANGLE_UNIT()
SI_UNIT($,.RADIAN.)
);
#432=SHAPE_DEFINITION_REPRESENTATION(#433,#434);
#433=PRODUCT_DEFINITION_SHAPE('',$,#436);
#434=SHAPE_REPRESENTATION('',(#182),#428);
#435=PRODUCT_DEFINITION_CONTEXT('3D Mechanical Parts',#439,'design');
#436=PRODUCT_DEFINITION('(Unsaved)','(Unsaved)',#437,#435);
#437=PRODUCT_DEFINITION_FORMATION('',$,#441);
#438=APPLICATION_PROTOCOL_DEFINITION('international standard',
'automotive_design',2009,#439);
#439=APPLICATION_CONTEXT(
'Core Data for Automotive Mechanical Design Process');
#440=PRODUCT_CONTEXT('3D Mechanical Parts',#439,'mechanical');
#441=PRODUCT('(Unsaved)','(Unsaved)',$,(#440));
#442=PRESENTATION_STYLE_ASSIGNMENT((#443));
#443=SURFACE_STYLE_USAGE(.BOTH.,#444);
#444=SURFACE_SIDE_STYLE($,(#445));
#445=SURFACE_STYLE_FILL_AREA(#446);
#446=FILL_AREA_STYLE($,(#447));
#447=FILL_AREA_STYLE_COLOUR($,#448);
#448=COLOUR_RGB('__RGBA_0.321569_0.701961_0.937255',0.32156862745098,0.701960784313725,
0.937254901960784);
ENDSEC;
END-ISO-10303-21;
